<svg width="13" height="13" viewBox="0 0 13 13" fill="none" xmlns="http://www.w3.org/2000/svg">
<path d="M2.23438 3.07334V3.60675C2.23438 3.78469 2.39931 3.96222 2.60244 3.96222H6.80469C6.99522 3.96222 7.16016 3.79728 7.16016 3.60675V3.07334C7.16016 2.89541 6.99522 2.73047 6.80469 2.73047H2.60244C2.39931 2.73047 2.23438 2.89541 2.23438 3.07334ZM2.23438 5.14238V5.66278C2.23438 5.86591 2.39931 6.01825 2.60244 6.01825H9.63584C9.82638 6.01825 9.97872 5.86591 9.97872 5.66278V5.14238C9.97872 4.95184 9.82638 4.7995 9.63584 4.7995H2.60244C2.39931 4.7995 2.23438 4.95184 2.23438 5.14238ZM2.23438 7.19922V7.73263C2.23438 7.92316 2.39931 8.08809 2.60244 8.08809H7.52822C7.70616 8.08809 7.8585 7.92316 7.8585 7.73263V7.19922C7.8585 7.00869 7.70616 6.84375 7.52822 6.84375H2.60244C2.39931 6.84375 2.23438 7.00869 2.23438 7.19922ZM2.23438 9.38281V9.90322C2.23438 10.1063 2.39931 10.2713 2.60244 10.2713H10.3338C10.5243 10.2713 10.6892 10.1063 10.6892 9.90322V9.38281C10.6892 9.20488 10.5243 9.02734 10.3338 9.02734H2.60244C2.39931 9.02734 2.23438 9.19228 2.23438 9.38281Z" fill="white"/>
</svg>
