<svg width="13" height="13" viewBox="0 0 13 13" fill="none" xmlns="http://www.w3.org/2000/svg">
<path d="M10.3342 3.96222H6.10675C5.91622 3.96222 5.76388 3.78428 5.76388 3.60675V3.07334C5.76388 2.89541 5.91622 2.73047 6.10675 2.73047H10.3342C10.5247 2.73047 10.6897 2.89541 10.6897 3.07334V3.60675C10.6897 3.79728 10.5247 3.96222 10.3342 3.96222ZM10.3342 6.01906H3.28819C3.09766 6.01906 2.93272 5.86672 2.93272 5.66359V5.14319C2.93272 4.94006 3.09766 4.80031 3.28819 4.80031H10.3342C10.5247 4.80031 10.6897 4.94006 10.6897 5.14319V5.66359C10.6897 5.86672 10.5247 6.01906 10.3342 6.01906ZM10.3342 8.08809H5.40841C5.21788 8.08809 5.05294 7.92316 5.05294 7.73262V7.19922C5.05294 7.00869 5.21788 6.84375 5.40841 6.84375H10.3342C10.5247 6.84375 10.6897 7.00869 10.6897 7.19922V7.73262C10.6897 7.92316 10.5247 8.08809 10.3342 8.08809ZM2.60244 9.02775H10.3338C10.5243 9.02775 10.6892 9.20569 10.6892 9.38322V9.90362C10.6892 10.1067 10.5243 10.2717 10.3338 10.2717H2.60244C2.39931 10.2717 2.23438 10.1067 2.23438 9.90362V9.38322C2.23438 9.19269 2.39931 9.02775 2.60244 9.02775Z" fill="white"/>
</svg>
