<svg width="13" height="13" viewBox="0 0 13 13" fill="none" xmlns="http://www.w3.org/2000/svg">
<path d="M8.58203 3.96222H4.35459C4.15147 3.96222 3.98653 3.78428 3.98653 3.60675V3.07334C3.98653 2.89541 4.15147 2.73047 4.35459 2.73047H8.58203C8.75997 2.73047 8.92491 2.89541 8.92491 3.07334V3.60675C8.92491 3.79728 8.75997 3.96222 8.58203 3.96222ZM9.97872 6.01906H2.93272C2.74219 6.01906 2.58984 5.86672 2.58984 5.66359V5.14319C2.58984 4.94006 2.74219 4.80031 2.93272 4.80031H9.97872C10.1693 4.80031 10.3342 4.94006 10.3342 5.14319V5.66359C10.3342 5.86672 10.1693 6.01906 9.97872 6.01906ZM8.92491 8.08809H3.99913C3.796 8.08809 3.64366 7.92316 3.64366 7.73262V7.19922C3.64366 7.00869 3.796 6.84375 3.99913 6.84375H8.92491C9.10284 6.84375 9.28038 7.00869 9.28038 7.19922V7.73262C9.28038 7.92316 9.10244 8.08809 8.92491 8.08809ZM2.60244 9.02775H10.3338C10.5243 9.02775 10.6892 9.20569 10.6892 9.38322V9.90362C10.6892 10.1067 10.5243 10.2717 10.3338 10.2717H2.60244C2.39931 10.2717 2.23438 10.1067 2.23438 9.90362V9.38322C2.23438 9.19269 2.39931 9.02775 2.60244 9.02775Z" fill="white"/>
</svg>
