<svg width="133" height="133" viewBox="0 0 133 133" fill="none" xmlns="http://www.w3.org/2000/svg">
<path d="M15.4221 7.64997C15.6915 7.64952 15.961 7.64906 16.2386 7.6486C17.1424 7.64772 18.0462 7.65065 18.9501 7.65355C19.5976 7.6537 20.2451 7.65362 20.8926 7.65332C22.2871 7.6532 23.6817 7.65471 25.0762 7.6577C27.0925 7.66203 29.1088 7.66341 31.1251 7.66408C34.3964 7.66524 37.6678 7.66878 40.9391 7.67381C44.1168 7.6787 47.2944 7.68246 50.472 7.68472C50.6679 7.68486 50.8638 7.685 51.0656 7.68515C52.0484 7.68584 53.0312 7.68651 54.014 7.68718C62.166 7.69269 70.3179 7.7025 78.4699 7.71395C78.4699 12.0152 78.4699 16.3164 78.4699 20.7479C55.1204 20.7479 31.7709 20.7479 7.71387 20.7479C7.71387 11.529 7.71387 11.529 9.65068 9.45957C9.94282 9.25384 9.94282 9.25384 10.2409 9.04395C10.4356 8.90131 10.6304 8.75866 10.8311 8.6117C12.3776 7.67956 13.6545 7.63909 15.4221 7.64997Z" fill="#4F7CFF"/>
<path d="M104.006 51.8701C105.04 52.0263 105.787 52.3353 106.688 52.8603C106.936 53.0035 107.184 53.1467 107.439 53.2942C107.694 53.4442 107.95 53.5942 108.213 53.7487C108.473 53.8998 108.733 54.0508 109.002 54.2064C109.643 54.5787 110.283 54.9526 110.922 55.3281C110.686 56.3914 110.215 57.2505 109.676 58.1876C109.571 58.3711 109.467 58.5546 109.359 58.7436C108.256 60.6752 107.128 62.5918 106.003 64.5106C104.875 66.4405 103.778 68.3859 102.693 70.3405C101.28 72.8838 99.8059 75.3836 98.2992 77.8722C96.8827 80.2179 95.5305 82.5961 94.1904 84.9861C92.9639 87.1723 91.7017 89.3379 90.4404 91.5041C88.8208 91.079 87.4967 90.2111 86.0847 89.3429C85.8381 89.193 85.5916 89.0432 85.3376 88.8888C84.7323 88.5206 84.128 88.1511 83.5244 87.7801C83.8896 86.8073 84.3285 85.9298 84.8503 85.0318C85.0094 84.7569 85.1685 84.4821 85.3324 84.1989C85.5039 83.9049 85.6753 83.6109 85.8519 83.308C86.0319 82.9977 86.2118 82.6874 86.3916 82.3771C87.2599 80.88 88.1328 79.3857 89.0075 77.8924C89.3134 77.3701 89.6192 76.8478 89.925 76.3255C90.0776 76.0651 90.2301 75.8047 90.3872 75.5365C91.4877 73.6514 92.5563 71.7501 93.6158 69.8417C95.0094 67.3338 96.4613 64.8674 97.9477 62.4135C99.2795 60.2084 100.57 57.9816 101.845 55.7437C101.986 55.4967 101.986 55.4967 102.13 55.2447C103.099 53.574 103.099 53.574 104.006 51.8701Z" fill="#4F7CFF"/>
<path d="M86.1836 7.71389C88.2684 7.68097 90.3531 7.64805 92.5011 7.61414C93.1525 7.59961 93.8039 7.58508 94.4751 7.57011C100.173 7.49562 100.173 7.49562 102.41 9.30989C105.617 12.6617 104.538 15.5813 104.538 20.7479C98.4808 20.7479 92.424 20.7479 86.1836 20.7479C86.1836 16.4467 86.1836 12.1454 86.1836 7.71389Z" fill="#4F7CFF"/>
<path d="M111.986 38.304C112.902 38.6532 113.753 39.0526 114.609 39.528C114.963 39.7234 114.963 39.7234 115.324 39.9228C115.566 40.0579 115.809 40.193 116.059 40.3322C116.307 40.4694 116.554 40.6065 116.81 40.7478C117.419 41.0852 118.027 41.4232 118.636 41.762C118.48 42.7954 118.171 43.5429 117.645 44.4438C117.502 44.6915 117.359 44.9393 117.212 45.1945C117.062 45.4498 116.912 45.7051 116.757 45.9681C116.606 46.2285 116.455 46.4889 116.299 46.7572C115.927 47.3985 115.553 48.0386 115.178 48.678C114.144 48.5218 113.397 48.2128 112.496 47.6877C112.248 47.5446 112 47.4014 111.745 47.2539C111.49 47.1039 111.235 46.9539 110.972 46.7993C110.711 46.6483 110.451 46.4972 110.182 46.3416C109.541 45.9694 108.901 45.5955 108.262 45.22C108.439 44.3194 108.786 43.6325 109.243 42.8395C109.385 42.5921 109.527 42.3447 109.673 42.0898C109.822 41.8335 109.97 41.5772 110.124 41.3131C110.273 41.0537 110.421 40.7943 110.575 40.527C111.679 38.611 111.679 38.611 111.986 38.304Z" fill="#4F7CFF"/>
<path d="M122.626 26.334C123.86 26.9528 124.665 27.7517 125.286 28.994C125.647 31.3647 124.081 33.429 122.892 35.378C121.957 35.0271 121.122 34.6137 120.269 34.0958C120.033 33.9535 119.797 33.8112 119.554 33.6646C119.312 33.5168 119.069 33.3691 118.819 33.2168C118.571 33.0669 118.324 32.9171 118.068 32.7627C117.459 32.394 116.85 32.0245 116.242 31.654C116.582 29.7728 117.608 28.3937 118.669 26.8328C119.889 26.0374 121.213 26.1085 122.626 26.334Z" fill="#4F7CFF"/>
<path d="M104.538 28.4619C104.538 36.1759 104.538 36.1763 102.942 38.5703C102.545 39.2653 102.157 39.9603 101.778 40.665C100.619 42.7888 99.3942 44.8717 98.1543 46.9492C96.97 48.9353 95.7924 50.9228 94.6797 52.9502C92.2899 57.3035 89.7734 61.5857 87.2314 65.8516C85.709 68.4078 84.2327 70.9855 82.7871 73.5859C81.6538 75.6231 80.5003 77.648 79.335 79.667C79.1681 79.957 79.001 80.2471 78.8291 80.5459C78.1013 81.8071 77.3678 83.0631 76.6006 84.3008C76.4192 84.5968 76.4195 84.5974 76.2344 84.8994C76.0209 85.2457 75.8037 85.5896 75.582 85.9307C74.8934 87.0519 74.5319 88.177 74.1797 89.4453C74.039 89.9485 74.039 89.9487 73.8955 90.4619C73.7898 90.8458 73.7905 90.8466 73.6826 91.2383C73.4017 91.2389 73.1204 91.2396 72.8311 91.2402C65.9979 91.2559 59.1642 91.2758 52.3311 91.3008C49.0267 91.3127 45.7223 91.3231 42.418 91.3301C39.5381 91.3362 36.6582 91.3452 33.7783 91.3574C32.2533 91.3638 30.7282 91.3685 29.2031 91.3701C27.7679 91.3717 26.3326 91.3776 24.8975 91.3857C24.3706 91.3881 23.8433 91.3891 23.3164 91.3887C22.597 91.3882 21.8776 91.3918 21.1582 91.3975L20.5264 91.3936C19.0307 91.4129 17.9629 91.7451 16.8076 92.7012C16.0451 93.6647 16.107 94.859 16.2266 96.0264C16.7089 97.4196 17.3382 97.985 18.6201 98.6855C19.3952 98.7871 20.0686 98.8321 20.8418 98.8242C21.0615 98.8262 21.2815 98.828 21.5078 98.8301C22.2416 98.8355 22.9752 98.8332 23.709 98.8311C24.2359 98.8334 24.7632 98.8366 25.29 98.8398C26.7193 98.8473 28.1488 98.8479 29.5781 98.8477C31.0724 98.8485 32.5673 98.8551 34.0615 98.8613C36.8903 98.8721 39.7191 98.8774 42.5479 98.8809C45.7688 98.8851 48.99 98.8955 52.2109 98.9062C58.8359 98.9282 65.4609 98.9427 72.0859 98.9521C71.933 100.283 71.7272 101.405 71.2881 102.676C71.1455 103.489 71.0389 104.303 70.9316 105.122C70.7743 106.029 70.5724 106.901 70.3467 107.793C70.2742 108.08 70.2016 108.367 70.127 108.663C70.0714 108.882 70.0153 109.101 69.958 109.326C69.6963 109.327 69.4346 109.327 69.165 109.328C62.7982 109.344 56.4313 109.364 50.0645 109.389C46.9855 109.401 43.9061 109.411 40.8271 109.418C38.1436 109.424 35.4599 109.433 32.7764 109.445C31.3555 109.452 29.9346 109.456 28.5137 109.458C27.1762 109.46 25.8384 109.465 24.501 109.474C24.0101 109.476 23.5192 109.477 23.0283 109.477C22.3579 109.476 21.687 109.481 21.0166 109.486L20.4287 109.482C18.8766 109.504 17.8375 109.929 16.6582 110.922C15.9959 112.145 16.0332 113.286 16.2266 114.646C16.5816 115.611 16.5811 115.612 17.29 116.242C18.7095 116.76 19.9828 116.853 21.4707 116.851C21.6976 116.852 21.9245 116.854 22.1582 116.855C22.915 116.861 23.6718 116.863 24.4287 116.864C24.9728 116.867 25.5174 116.87 26.0615 116.873C27.5371 116.881 29.0127 116.886 30.4883 116.89C31.4107 116.892 32.3335 116.894 33.2559 116.896C36.1432 116.905 39.0306 116.912 41.918 116.915C45.2487 116.919 48.5795 116.931 51.9102 116.949C54.4867 116.963 57.0631 116.969 59.6396 116.971C61.1777 116.972 62.7159 116.976 64.2539 116.987C65.7005 116.998 67.1471 116.999 68.5938 116.994C69.1238 116.994 69.6546 116.997 70.1846 117.003C73.3865 117.137 73.3865 117.137 76.2236 115.876C76.539 115.564 76.8466 115.244 77.1406 114.912C77.424 114.657 77.709 114.405 77.9971 114.155C78.2463 113.922 78.4961 113.689 78.7529 113.449C79.6242 112.639 80.4967 111.833 81.3965 111.055C82.143 110.409 82.8717 109.745 83.5957 109.074C84.7307 108.022 85.8736 107.002 87.082 106.034C88.4255 104.953 89.6859 103.8 90.9395 102.617C91.0856 102.479 91.2323 102.342 91.3828 102.2C91.5311 102.059 91.6793 101.918 91.832 101.773C92.1527 101.482 92.4842 101.202 92.8232 100.932C94.3948 99.6656 95.3137 98.2159 96.3086 96.4746C96.4773 96.1864 96.6465 95.8985 96.8203 95.6016C97.2664 94.8373 97.7085 94.071 98.1494 93.3037C98.5101 92.6774 98.8745 92.0522 99.2383 91.4277C100.864 88.6357 102.471 85.8358 104.006 82.9922H104.538C104.569 87.8062 104.593 92.6205 104.607 97.4346C104.614 99.67 104.623 101.905 104.639 104.141C104.652 106.09 104.66 108.039 104.663 109.988C104.665 111.02 104.669 112.051 104.679 113.082C104.688 114.054 104.69 115.027 104.688 115.999C104.689 116.523 104.697 117.047 104.704 117.57C104.69 120.013 104.131 121.465 102.626 123.357C100.407 125.132 98.4256 125.48 95.6309 125.453C95.2735 125.454 94.9159 125.457 94.5586 125.459C93.583 125.464 92.6074 125.461 91.6318 125.456C90.5773 125.452 89.5223 125.457 88.4678 125.46C86.4047 125.465 84.3414 125.462 82.2783 125.457C80.6014 125.453 78.924 125.452 77.2471 125.453C77.0083 125.453 76.7695 125.454 76.5234 125.454C76.0381 125.454 75.5527 125.455 75.0674 125.455C70.7781 125.457 66.4885 125.452 62.1992 125.444C58.0389 125.437 53.8781 125.435 49.7178 125.439C45.1846 125.444 40.6514 125.445 36.1182 125.44C35.6348 125.44 35.1514 125.439 34.668 125.438C34.4302 125.438 34.1922 125.438 33.9473 125.438C32.2723 125.436 30.5968 125.438 28.9219 125.439C26.8808 125.442 24.8399 125.439 22.7988 125.433C21.7577 125.429 20.7159 125.428 19.6748 125.431C18.7213 125.433 17.7679 125.431 16.8145 125.425C16.3074 125.423 15.8 125.426 15.293 125.43C12.8404 125.406 11.1384 124.884 9.31055 123.158C8.20699 121.676 7.64709 120.488 7.64844 118.635C7.64738 118.312 7.6466 117.99 7.64551 117.658C7.64702 117.302 7.64878 116.945 7.65039 116.588C7.65016 116.209 7.64912 115.831 7.64844 115.452C7.64724 114.409 7.64968 113.366 7.65234 112.323C7.65466 111.182 7.65371 110.041 7.65332 108.899C7.65304 106.684 7.65577 104.468 7.65918 102.253C7.66301 99.6903 7.66364 97.1271 7.66406 94.5645C7.66686 87.7976 7.67381 81.0306 7.68066 74.2637C7.69164 59.1491 7.70256 44.0345 7.71387 28.4619H104.538ZM51.8076 64.6016L51.2383 65.3525L50.6748 66.0879L50.1348 66.8027C49.4888 67.6512 48.8586 68.494 48.5 69.5C48.2225 70.2786 48 70 47 72.5C47.5609 73.4198 49 73 51 73C53 73 52.9028 73.439 61.1797 72.8838C61.1797 72.5894 61.1803 72.5888 60.2344 71.3369L60.1885 71.2773C59.2795 70.0829 58.3703 68.8884 57.4883 67.6738L56.9844 66.9736C56.6538 66.5167 56.3233 66.0598 55.9932 65.6025L55.5205 64.9365L55.0703 64.3154C54.5173 63.5426 54.0798 63.1472 53.2002 62.7764C52.7349 63.3839 52.2703 63.992 51.8076 64.6016ZM35.1123 67.0322C33.7679 68.3988 32.4393 69.7678 30.9727 71.0049C30.1932 71.6385 30.0076 71.9214 29.5264 72.8838H41.2305C41.2305 72.5807 41.2296 72.5805 39.4854 70.8242C39.242 70.5807 39.0057 70.3438 38.7695 70.1074C38.4146 69.7475 38.4144 69.7474 38.0664 69.3945C37.835 69.1626 37.6103 68.937 37.3857 68.7119C36.6646 67.9869 36.0573 67.4344 35.1123 67.0322ZM23.6738 67.2979H23.9395C24.3401 66.9092 24.7394 66.519 25.1318 66.1221C25.4727 65.775 25.8149 65.4286 26.1572 65.083C26.7099 64.5253 27.262 63.967 27.8135 63.4082C28.3582 62.8546 28.9034 62.3005 29.4502 61.749L29.9756 61.2197C31.3805 59.7839 33.05 57.6355 35.1953 57.6055C37.3075 57.8562 38.5516 58.9763 39.9814 60.4434L40.9541 61.458L41.4316 61.9473C42.0293 62.5712 42.5673 62.9546 43.3574 63.3086L43.4424 63.1953C44.0759 62.3511 44.7096 61.5063 45.3418 60.6611C46 59.7805 46.66 58.9008 47.3213 58.0225C47.7249 57.4865 48.1271 56.9491 48.5254 56.4092C48.7626 56.0869 49.001 55.7651 49.2402 55.4443L49.5752 54.9961C50.1616 54.1777 50.1618 54.177 50.8057 53.4658C52.1745 52.4065 52.8588 52.2631 54.5303 52.4023L55.0615 52.668C55.4997 52.9998 55.7433 53.2433 56 53.5C56.5 54 56.6578 53.9983 56.9463 54.4238L57.3096 54.8877L57.7217 55.4199C59.2218 57.3359 60.6793 59.2791 62.1104 61.2471L62.5742 61.8896L63.0166 62.498C63.6745 63.4095 63.6751 63.4095 65.1699 64.9043V44.4219H23.6738V67.2979Z" fill="#4F7CFF"/>
<path d="M80.8636 95.228C82.0925 95.8425 83.7338 96.8669 85 97.5C84.5 98 84.5876 98.154 83.9641 98.8419C83.6872 99.0924 83.4071 99.3396 83.1246 99.5838C82.9801 99.7123 82.8357 99.8408 82.6869 99.9732C81.5914 100.938 80.4572 101.83 79.2676 102.676C79.6326 100.14 80.2227 97.7059 80.8636 95.228Z" fill="#4F7CFF"/>
</svg>
