<svg width="13" height="13" viewBox="0 0 13 13" fill="none" xmlns="http://www.w3.org/2000/svg">
<g clip-path="url(#clip0_3143_31801)">
<path d="M7.58301 6.76953C7.58301 7.21825 7.21922 7.58203 6.77051 7.58203C6.32179 7.58203 5.95801 7.21825 5.95801 6.76953C5.95801 6.32081 6.32179 5.95703 6.77051 5.95703C7.21922 5.95703 7.58301 6.32081 7.58301 6.76953Z" fill="white"/>
<path d="M8.9375 5.41796C9.38622 5.41796 9.75 5.0542 9.75 4.60547C9.75 4.15674 9.38622 3.79297 8.9375 3.79297C8.48878 3.79297 8.125 4.15674 8.125 4.60547C8.125 5.0542 8.48878 5.41796 8.9375 5.41796Z" fill="white"/>
<path d="M7.04199 3.51953C7.04199 3.96826 6.67821 4.33203 6.22949 4.33203C5.78078 4.33203 5.41699 3.96826 5.41699 3.51953C5.41699 3.0708 5.78078 2.70703 6.22949 2.70703C6.67821 2.70703 7.04199 3.0708 7.04199 3.51953Z" fill="white"/>
<path d="M4.0625 6.49999C4.51123 6.49999 4.875 6.13621 4.875 5.68749C4.875 5.23877 4.51123 4.875 4.0625 4.875C3.61377 4.875 3.25 5.23877 3.25 5.68749C3.25 6.13621 3.61377 6.49999 4.0625 6.49999Z" fill="white"/>
<path d="M7.58301 9.48047C7.58301 9.92919 7.21922 10.293 6.77051 10.293C6.32179 10.293 5.95801 9.92919 5.95801 9.48047C5.95801 9.03175 6.32179 8.66797 6.77051 8.66797C7.21922 8.66797 7.58301 9.03175 7.58301 9.48047Z" fill="white"/>
<path d="M4.0625 9.20703C4.51123 9.20703 4.875 8.84325 4.875 8.39453C4.875 7.94581 4.51123 7.58203 4.0625 7.58203C3.61377 7.58203 3.25 7.94581 3.25 8.39453C3.25 8.84325 3.61377 9.20703 4.0625 9.20703Z" fill="white"/>
<path fill-rule="evenodd" clip-rule="evenodd" d="M6.22999 0.555232C8.34422 0.43043 10.5969 1.26064 11.8129 2.93269C12.1919 3.45374 12.3622 4.13789 12.2681 4.78532C12.1717 5.44748 11.7938 6.0853 11.0755 6.44442C10.6376 6.66336 10.1687 7.01431 9.87995 7.40507C9.59596 7.78954 9.54076 8.12207 9.6927 8.42606C9.97908 8.99876 10.2317 9.71132 10.189 10.3948C10.1669 10.7469 10.0656 11.1028 9.84003 11.4198C9.61383 11.7377 9.28667 11.9828 8.86774 12.1504C7.91338 12.5321 6.84001 12.5489 5.85429 12.3628C4.8672 12.1763 3.9242 11.7785 3.21012 11.2787C2.16964 10.5504 1.34028 9.58305 0.92816 8.36837C0.5147 7.14967 0.539352 5.73516 1.11586 4.14967C1.97349 1.79108 4.09624 0.681192 6.22999 0.555232ZM6.29385 1.63669C4.47726 1.74392 2.80835 2.66527 2.13398 4.51987C1.62714 5.91375 1.63242 7.07227 1.95406 8.02029C2.27704 8.97227 2.93726 9.76538 3.83136 10.3912C4.41126 10.7971 5.20905 11.1385 6.0553 11.2982C6.90301 11.4584 7.75554 11.4285 8.46539 11.1445C8.8334 10.9973 9.08246 10.7319 9.10775 10.3272C9.13272 9.92734 8.97905 9.4212 8.72377 8.91052C8.32201 8.10701 8.58759 7.33129 9.00863 6.76135C9.42501 6.19775 10.0454 5.74827 10.591 5.47549C10.956 5.29299 11.1445 4.98286 11.196 4.62932C11.2496 4.26104 11.1491 3.86169 10.9369 3.5699C9.98628 2.26295 8.12994 1.5283 6.29385 1.63669Z" fill="white"/>
</g>
<defs>
<clipPath id="clip0_3143_31801">
<rect width="13" height="13" fill="white"/>
</clipPath>
</defs>
</svg>
