<svg width="22" height="27" viewBox="0 0 22 27" fill="none" xmlns="http://www.w3.org/2000/svg">
<path d="M2.8937 5.08203H8.13812H14.3361C14.9718 5.08203 16.2431 5.44877 16.2431 6.91575V23.4192C16.2431 24.1832 15.8617 25.7113 14.3361 25.7113H2.8937C2.09909 25.5585 0.509868 24.8862 0.509868 23.4192V6.91575C0.430407 6.30451 0.795927 5.08203 2.8937 5.08203Z" stroke="white" stroke-linecap="round" stroke-linejoin="round"/>
<path d="M5.27734 1.87529C5.43627 1.41686 6.13552 0.5 7.66117 0.5C9.18682 0.5 15.9251 0.5 19.1036 0.5C19.7392 0.5 21.0106 0.775057 21.0106 1.87529C21.0106 3.25057 21.0106 14.2529 21.0106 19.2956C21.0106 20.6709 20.0571 20.6709 19.1036 20.6709" stroke="white" stroke-linecap="round" stroke-linejoin="round"/>
</svg>
