<svg width="14" height="14" viewBox="0 0 14 14" fill="none" xmlns="http://www.w3.org/2000/svg">
<path d="M11.5 3L10.8993 11.0086C10.8468 11.71 10.8204 12.0607 10.65 12.3267C10.4999 12.5608 10.2736 12.749 10.0008 12.8665C9.691 13 9.29552 13 8.50465 13H5.49533C4.70445 13 4.30901 13 3.99917 12.8665C3.72638 12.749 3.50004 12.5608 3.34999 12.3267C3.17955 12.0607 3.15325 11.71 3.10064 11.0086L2.5 3M1 3H13M10 3L9.79705 2.45871C9.60032 1.93417 9.50193 1.67189 9.31953 1.47799C9.15843 1.30675 8.95157 1.17421 8.71787 1.09252C8.4532 1 8.14225 1 7.5202 1H6.4798C5.85775 1 5.5468 1 5.28213 1.09252C5.04844 1.17421 4.84156 1.30675 4.68047 1.47799C4.49804 1.67189 4.39969 1.93417 4.20298 2.45871L4 3" stroke="#C9313A" stroke-width="2" stroke-linecap="round" stroke-linejoin="round"/>
</svg>
