<svg width="100" height="100" viewBox="0 0 100 100" fill="none" xmlns="http://www.w3.org/2000/svg">
<g clip-path="url(#clip0_2216_17310)">
<path d="M90.1392 48.141C90.1465 48.141 90.152 48.141 90.1594 48.141C90.6709 48.141 91.1585 47.9265 91.505 47.5507C91.857 47.1693 92.0312 46.6578 91.9854 46.1408C90.1447 25.8953 74.1159 9.86098 53.8685 8.01665C53.3552 7.97632 52.8382 8.14315 52.4569 8.49698C52.0755 8.84898 51.8629 9.34582 51.8684 9.86465C52.1874 36.7707 55.7367 47.7652 90.1392 48.141ZM90.1392 51.859C55.7367 52.2348 52.1892 63.2293 51.8702 90.1353C51.8647 90.6541 52.0774 91.151 52.4587 91.503C52.7997 91.8165 53.2452 91.9906 53.7035 91.9906C53.7585 91.9906 53.8154 91.9888 53.8704 91.9833C74.1177 90.139 90.1465 74.1065 91.9854 53.8592C92.0312 53.3422 91.8589 52.8307 91.505 52.4493C91.1512 52.068 90.658 51.8792 90.1392 51.859ZM46.009 8.02582C25.8259 9.92332 9.84836 25.954 8.01686 46.1445C7.97102 46.6615 8.14336 47.173 8.49719 47.5543C8.84369 47.9302 9.33319 48.1428 9.84286 48.1428C9.85019 48.1428 9.85752 48.1428 9.86486 48.1428C44.1537 47.7487 47.6939 36.7597 48.0165 9.87198C48.022 9.35315 47.8075 8.85448 47.4262 8.50248C47.0412 8.15048 46.526 7.97815 46.009 8.02582ZM9.86302 51.8572C9.29286 51.793 8.84552 52.0643 8.49536 52.4457C8.14336 52.827 7.96919 53.3385 8.01502 53.8555C9.84652 74.046 25.8259 90.0767 46.009 91.9742C46.0659 91.9797 46.1245 91.9815 46.1814 91.9815C46.6397 91.9815 47.0834 91.8091 47.4244 91.4956C47.8057 91.1436 48.0202 90.645 48.0147 90.1262C47.692 63.2403 44.1537 52.2513 9.86302 51.8572Z" fill="white"/>
</g>
<defs>
<clipPath id="clip0_2216_17310">
<rect width="100" height="100" fill="white"/>
</clipPath>
</defs>
</svg>
