<svg width="12" height="12" viewBox="0 0 12 12" fill="none" xmlns="http://www.w3.org/2000/svg">
<g clip-path="url(#clip0_2340_18875)">
<path d="M10.64 3.1999L5.86995 7.96988C5.39495 8.44488 3.98494 8.66488 3.66994 8.34988C3.35494 8.03488 3.56994 6.62488 4.04494 6.14988L8.81995 1.37489C8.9377 1.24642 9.08025 1.14315 9.23905 1.0713C9.3978 0.999448 9.5695 0.960498 9.74375 0.956828C9.91795 0.953163 10.0912 0.984833 10.2528 1.04994C10.4145 1.11504 10.5613 1.21224 10.6843 1.33564C10.8074 1.45904 10.9042 1.60609 10.9688 1.76792C11.0335 1.92976 11.0647 2.10301 11.0606 2.27723C11.0564 2.45146 11.017 2.62305 10.9447 2.78163C10.8724 2.9402 10.7688 3.0825 10.64 3.1999Z" stroke="#FCFCFC" stroke-width="2" stroke-linecap="round" stroke-linejoin="round"/>
<path d="M5.5 2H3C2.46956 2 1.96089 2.21071 1.58581 2.58578C1.21074 2.96086 1 3.46956 1 4V9C1 9.53045 1.21074 10.0391 1.58581 10.4142C1.96089 10.7893 2.46956 11 3 11H8.5C9.605 11 10 10.1 10 9V6.5" stroke="#FCFCFC" stroke-width="2" stroke-linecap="round" stroke-linejoin="round"/>
</g>
<defs>
<clipPath id="clip0_2340_18875">
<rect width="12" height="12" fill="white"/>
</clipPath>
</defs>
</svg>
