<svg width="21" height="21" viewBox="0 0 21 21" fill="none" xmlns="http://www.w3.org/2000/svg">
<path d="M20.9202 10.1342C19.1999 6.39712 15.3123 2.625 10.4998 2.625C5.68728 2.625 1.79966 6.39712 0.0794099 10.1342C0.0270796 10.2491 0 10.3738 0 10.5C0 10.6262 0.0270796 10.7509 0.0794099 10.8658C1.79966 14.6029 5.68728 18.375 10.4998 18.375C15.3123 18.375 19.1999 14.6029 20.9202 10.8658C20.9725 10.7509 20.9996 10.6262 20.9996 10.5C20.9996 10.3738 20.9725 10.2491 20.9202 10.1342ZM10.4998 16.625C6.64016 16.625 3.37203 13.517 1.84603 10.5C3.37203 7.483 6.64016 4.375 10.4998 4.375C14.3594 4.375 17.6275 7.483 19.1535 10.5C17.6275 13.517 14.3594 16.625 10.4998 16.625Z" fill="#828282"/>
<path d="M10.5 6.125C9.63471 6.125 8.78885 6.38159 8.06938 6.86232C7.34992 7.34305 6.78916 8.02633 6.45803 8.82576C6.1269 9.62519 6.04026 10.5049 6.20907 11.3535C6.37788 12.2022 6.79456 12.9817 7.40641 13.5936C8.01826 14.2054 8.79782 14.6221 9.64648 14.7909C10.4951 14.9597 11.3748 14.8731 12.1742 14.542C12.9737 14.2108 13.657 13.6501 14.1377 12.9306C14.6184 12.2112 14.875 11.3653 14.875 10.5C14.8736 9.3401 14.4122 8.22811 13.5921 7.40794C12.7719 6.58777 11.6599 6.12639 10.5 6.125ZM10.5 13.125C9.98083 13.125 9.47331 12.971 9.04163 12.6826C8.60995 12.3942 8.2735 11.9842 8.07482 11.5045C7.87614 11.0249 7.82415 10.4971 7.92544 9.98789C8.02673 9.47869 8.27673 9.01096 8.64385 8.64384C9.01096 8.27673 9.47869 8.02672 9.98789 7.92544C10.4971 7.82415 11.0249 7.87614 11.5045 8.07482C11.9842 8.2735 12.3942 8.60995 12.6826 9.04163C12.971 9.47331 13.125 9.98082 13.125 10.5C13.125 11.1962 12.8484 11.8639 12.3562 12.3562C11.8639 12.8484 11.1962 13.125 10.5 13.125Z" fill="#828282"/>
</svg>
