<svg width="13" height="13" viewBox="0 0 13 13" fill="none" xmlns="http://www.w3.org/2000/svg">
<path fill-rule="evenodd" clip-rule="evenodd" d="M11.9167 10.8325L10.8333 11.9158H3.79167L4.875 10.8325H11.9167ZM2.67028 8.74187L4.25725 10.3288L2.70833 11.1033L1.625 11.3741L1.89583 10.2908L2.67028 8.74187ZM3.17637 5.99795L7.01129 9.83288L6.88014 9.96782L6.73099 9.96044L6.57476 9.95801C6.30849 9.95807 6.01273 9.97873 5.6875 10.02L5.48362 10.0486L5.2844 10.0814L5.0938 10.1167L4.85944 10.165L2.86785 8.1734C2.90741 8.01411 2.9475 7.81682 2.97917 7.58248C3.04343 7.10689 3.06704 6.62528 3.04998 6.13765L3.13393 6.04315L3.17637 5.99795ZM8.79347 1.14062L11.8576 4.20475L11.3997 4.79507L10.5731 5.84879L10.0881 6.45726L9.65613 6.99053L9.36685 7.34113L9.02745 7.74279L8.80763 7.99469L8.61757 8.20428L8.45727 8.37157L8.07661 8.74805L7.38956 9.44511L3.55408 5.60963L3.61915 5.54308L4.58029 4.58777L4.87652 4.3035L5.20593 4.00184L5.49334 3.74798L5.80198 3.48298L6.13184 3.20685L6.48294 2.91959L6.85527 2.6212L7.45357 2.15272L7.87897 1.82649L8.32561 1.48913L8.79347 1.14062Z" fill="white"/>
</svg>
