<svg width="11" height="11" viewBox="0 0 11 11" fill="none" xmlns="http://www.w3.org/2000/svg">
<path d="M10.2917 1.625V2.70833H8.66667V4.33333H7.58333V2.70833H5.95833V1.625H7.58333V0H8.66667V1.625H10.2917ZM5.6875 5.41667C6.136 5.41667 6.5 5.05267 6.5 4.60417C6.5 4.15567 6.136 3.79167 5.6875 3.79167C5.239 3.79167 4.875 4.15567 4.875 4.60417C4.875 5.05267 5.239 5.41667 5.6875 5.41667ZM7.58333 7.16842L7.30546 6.85967C6.87537 6.38029 6.12463 6.38029 5.69346 6.85967L5.33867 7.25508L2.70833 4.33333L1.08333 6.13871V2.70833H4.875V1.625H1.08333C0.484792 1.625 0 2.10979 0 2.70833V9.20833C0 9.80688 0.484792 10.2917 1.08333 10.2917H7.58333C8.18188 10.2917 8.66667 9.80688 8.66667 9.20833V5.41667H7.58333V7.16842Z" fill="white"/>
</svg>
