<svg width="9" height="9" viewBox="0 0 9 9" fill="none" xmlns="http://www.w3.org/2000/svg">
<g clip-path="url(#clip0_3143_31735)">
<path d="M7.3281 0H3.55079C3.42897 0 3.3302 0.0987644 3.3302 0.220588C3.3302 0.342411 3.42897 0.441175 3.55079 0.441175H5.1672L3.44582 8.5588H1.67274C1.55091 8.5588 1.45215 8.65756 1.45215 8.77938C1.45215 8.90121 1.55091 8.99997 1.67274 8.99997H3.62388C3.62414 8.99997 3.62444 9 3.6247 9C3.62488 9 3.62502 8.99997 3.6252 8.99997H5.45002C5.57184 8.99997 5.67061 8.90121 5.67061 8.77938C5.67061 8.65756 5.57184 8.5588 5.45002 8.5588H3.89676L5.61814 0.441175H7.32807C7.44989 0.441175 7.54866 0.342411 7.54866 0.220588C7.54866 0.0987644 7.44992 0 7.3281 0Z" fill="white"/>
</g>
<defs>
<clipPath id="clip0_3143_31735">
<rect width="9" height="9" fill="white"/>
</clipPath>
</defs>
</svg>
