<svg width="142" height="27" viewBox="0 0 142 27" fill="none" xmlns="http://www.w3.org/2000/svg">
<path d="M0.756 1.16C0.684 0.895998 1.896 0.763999 4.392 0.763999C7.152 0.763999 8.568 0.991999 8.64 1.448L10.404 16.604L14.22 1.268C14.34 0.907999 15.276 0.727999 17.028 0.727999C18.78 0.727999 19.716 0.895999 19.836 1.232L23.58 16.676L25.668 1.376C25.716 1.112 26.268 0.931998 27.324 0.835998C28.38 0.739999 29.232 0.692 29.88 0.692C32.4 0.692 33.624 0.86 33.552 1.196L29.196 25.064C29.1 25.424 28.416 25.688 27.144 25.856C25.872 26.024 24.84 26.108 24.048 26.108C21.072 26.108 19.512 25.772 19.368 25.1L16.92 15.2L14.256 25.064C14.16 25.496 13.32 25.808 11.736 26C10.92 26.072 10.104 26.108 9.288 26.108L6.984 26C5.4 25.832 4.56 25.532 4.464 25.1L0.756 1.16ZM48.0125 10.808C48.4685 10.808 48.6965 11.648 48.6965 13.328C48.6965 13.832 48.6365 14.432 48.5165 15.128C48.4205 15.8 48.2285 16.136 47.9405 16.136H43.3685V19.736H49.9925C50.4005 19.736 50.6765 20.264 50.8205 21.32C50.8925 21.776 50.9285 22.268 50.9285 22.796C50.9285 23.3 50.8565 23.96 50.7125 24.776C50.5685 25.592 50.3285 26 49.9925 26H37.6805C36.7685 26 36.3125 25.628 36.3125 24.884V1.736C36.3125 1.112 36.5885 0.799998 37.1405 0.799998H50.0285C50.5325 0.799998 50.7845 1.868 50.7845 4.004C50.7845 6.116 50.5325 7.172 50.0285 7.172H43.3685V10.808H48.0125ZM71.9424 7.316C71.9424 9.812 70.8624 11.708 68.7024 13.004C69.8784 13.436 70.8624 14.18 71.6544 15.236C72.4464 16.292 72.8424 17.792 72.8424 19.736C72.8424 21.656 72.1224 23.18 70.6824 24.308C69.2664 25.436 67.2264 26 64.5624 26H56.0664C55.6584 26 55.3224 25.868 55.0584 25.604C54.7944 25.316 54.6624 24.944 54.6624 24.488V1.448C54.6624 1.184 54.6984 1.016 54.7704 0.943999C54.8664 0.847998 55.0464 0.799998 55.3104 0.799998H63.5184C69.1344 0.799998 71.9424 2.972 71.9424 7.316ZM61.5744 6.632V11.348H61.7544C64.0584 11.348 65.2104 10.58 65.2104 9.044C65.2104 8.204 64.9824 7.592 64.5264 7.208C64.0944 6.824 63.3624 6.632 62.3304 6.632H61.5744ZM61.5744 15.596V20.276H62.2224C63.2544 20.276 64.0104 20.084 64.4904 19.7C64.9704 19.316 65.2104 18.704 65.2104 17.864C65.2104 17.024 64.9824 16.436 64.5264 16.1C64.0944 15.764 63.3624 15.596 62.3304 15.596H61.5744ZM86.1374 0.475998C87.8894 0.475998 89.4254 0.727998 90.7454 1.232C92.0894 1.712 92.7614 2.372 92.7614 3.212C92.7614 4.052 92.4374 5.096 91.7894 6.344C91.1654 7.568 90.6374 8.18 90.2054 8.18C90.0854 8.18 89.9414 8.12 89.7734 8C89.6294 7.856 89.2694 7.712 88.6934 7.568C88.1414 7.4 87.6614 7.316 87.2534 7.316C85.8614 7.316 84.7334 7.808 83.8694 8.792C83.0294 9.776 82.6094 11.288 82.6094 13.328C82.6094 15.344 83.0414 16.844 83.9054 17.828C84.7934 18.812 85.9094 19.304 87.2534 19.304C87.8054 19.304 88.4174 19.232 89.0894 19.088C89.7854 18.92 90.2774 18.692 90.5654 18.404C90.6134 18.356 90.7094 18.332 90.8534 18.332C90.9974 18.332 91.2614 18.608 91.6454 19.16C92.0534 19.688 92.4254 20.396 92.7614 21.284C93.0974 22.148 93.2654 22.82 93.2654 23.3C93.2654 24.236 92.5454 24.98 91.1054 25.532C89.6654 26.084 87.9614 26.36 85.9934 26.36C82.8254 26.36 80.2214 25.244 78.1814 23.012C76.1414 20.78 75.1214 17.636 75.1214 13.58C75.1214 9.5 76.1654 6.296 78.2534 3.968C80.3654 1.64 82.9934 0.475998 86.1374 0.475998ZM125.098 17.216C125.554 17.576 126.334 18.068 127.438 18.692C128.566 19.316 129.634 19.628 130.642 19.628C131.674 19.628 132.19 19.232 132.19 18.44C132.19 18.08 132.046 17.768 131.758 17.504C131.47 17.216 130.942 16.892 130.174 16.532C129.406 16.172 128.83 15.896 128.446 15.704C128.062 15.488 127.546 15.152 126.898 14.696C126.274 14.216 125.794 13.724 125.458 13.22C124.498 11.852 124.018 10.112 124.018 8C124.018 5.888 124.798 4.112 126.358 2.672C127.942 1.208 130.006 0.475998 132.55 0.475998C134.278 0.475998 135.874 0.667999 137.338 1.052C138.802 1.412 139.558 1.892 139.606 2.492C139.606 2.564 139.606 2.636 139.606 2.708C139.606 3.548 139.342 4.616 138.814 5.912C138.286 7.184 137.914 7.892 137.698 8.036C136.162 7.244 134.782 6.848 133.558 6.848C132.358 6.848 131.758 7.28 131.758 8.144C131.758 8.672 132.202 9.14 133.09 9.548C133.282 9.644 133.558 9.776 133.918 9.944C134.278 10.112 134.686 10.316 135.142 10.556C135.622 10.772 136.126 11.06 136.654 11.42C137.206 11.756 137.794 12.212 138.418 12.788C139.69 13.988 140.326 15.572 140.326 17.54C140.326 20.108 139.618 22.208 138.202 23.84C136.786 25.472 134.602 26.312 131.65 26.36C130.21 26.36 128.902 26.24 127.726 26C126.574 25.76 125.566 25.292 124.702 24.596C123.838 23.9 123.406 23.06 123.406 22.076C123.406 21.092 123.586 20.12 123.946 19.16C124.306 18.176 124.69 17.528 125.098 17.216Z" fill="black"/>
<path d="M105.27 1.22645C99.1591 2.93429 95.103 9.17858 96.1704 15.2094C97.2645 21.4003 102.308 25.6699 108.472 25.6699C109.78 25.6699 110.607 25.5632 110.607 25.3764C110.607 24.7093 109.993 22.7346 109.78 22.7346C109.673 22.7346 109.433 22.9747 109.273 23.2683C108.899 23.9888 108.099 23.9354 107.592 23.1615C107.058 22.361 106.071 19.479 106.071 18.7318C106.071 18.2782 106.231 18.1981 107.271 18.1981C108.339 18.1981 108.472 18.1447 108.472 17.5844C108.472 16.6237 107.912 16.09 106.738 16.0099L105.67 15.9299V13.2614V10.5929H108.472H111.274L111.354 12.1406C111.434 13.5016 111.514 13.6883 112.208 14.0619C112.635 14.2754 113.035 14.4622 113.142 14.4622C113.222 14.4622 113.276 13.5549 113.276 12.4608V10.4328L115.997 10.5128L118.746 10.5929L118.959 11.9538C119.066 12.701 119.066 13.9018 118.959 14.6223L118.746 15.9299L117.545 16.0633L116.344 16.1967L118.079 17.1841C119.039 17.7178 119.893 18.0914 120.027 17.958C120.134 17.8512 120.427 16.7838 120.694 15.583C121.068 13.7417 121.094 13.1546 120.801 11.4735C119.973 6.48339 116.371 2.50733 111.541 1.22645C109.913 0.7728 106.871 0.799485 105.27 1.22645ZM108.926 2.93429C109.46 3.25451 110.58 6.00306 110.767 7.33731L110.954 8.59151H108.472H105.991L106.177 7.33731C106.444 5.41599 107.778 2.72081 108.472 2.72081C108.552 2.72081 108.739 2.82755 108.926 2.93429ZM104.843 5.17583C104.496 6.24323 104.149 7.44405 104.069 7.84433L103.936 8.59151H101.534C100.2 8.59151 99.1325 8.51146 99.1325 8.4314C99.1325 7.97775 100.36 6.34997 101.427 5.41599C102.575 4.40196 104.55 3.25451 105.163 3.25451C105.323 3.25451 105.19 4.02837 104.843 5.17583ZM114.076 4.32191C115.677 5.33594 117.812 7.65754 117.812 8.37803C117.812 8.51146 116.745 8.59151 115.41 8.59151H113.009L112.875 7.84433C112.795 7.44405 112.448 6.24323 112.101 5.17583L111.488 3.22782L112.181 3.38793C112.555 3.49467 113.409 3.89495 114.076 4.32191ZM103.669 13.2614V16.0633H101.027C99.2125 16.0633 98.3052 15.9566 98.1718 15.7431C97.9049 15.3161 97.9049 11.2066 98.1718 10.7797C98.3052 10.5662 99.2125 10.4595 101.027 10.4595H103.669V13.2614ZM104.496 20.2529C104.763 21.3203 105.11 22.441 105.27 22.7613C105.457 23.0548 105.537 23.375 105.457 23.4284C105.403 23.4818 104.63 23.1615 103.749 22.7346C102.201 21.9607 100.093 20.0394 99.426 18.7585L99.1058 18.1714L101.561 18.2515L103.989 18.3315L104.496 20.2529Z" fill="black"/>
<path d="M108.739 13.8218C108.739 14.142 112.022 25.8034 112.208 26.1503C112.342 26.4171 112.662 26.0969 113.249 25.1896C114.637 23.0015 114.637 23.0015 116.344 25.1096C117.972 27.111 118.159 27.1643 119.253 25.9635C119.733 25.4298 119.733 25.4031 118.586 23.9354C116.478 21.2403 116.478 21.5605 118.613 20.7066C120.347 20.0394 120.481 19.9327 120.054 19.6125C119.493 19.2122 109.086 13.6617 108.873 13.6617C108.793 13.6617 108.739 13.7418 108.739 13.8218Z" fill="black"/>
</svg>
