<svg width="12" height="12" viewBox="0 0 12 12" fill="none" xmlns="http://www.w3.org/2000/svg">
<path d="M9.23081 6.18127C9.23081 5.82693 8.94505 5.53906 8.5933 5.53906C8.24155 5.53906 7.95579 5.82693 7.95579 6.18127V7.93865C7.95579 7.94318 7.95204 7.94696 7.94754 7.94696H3.12946C3.12496 7.94696 3.12121 7.94318 3.12121 7.93865V6.18127C3.12121 5.82693 2.83546 5.53906 2.4837 5.53906C2.13195 5.53906 1.84619 5.82693 1.84619 6.18127V7.93865C1.84694 8.65112 2.4222 9.23137 3.12946 9.23137H7.94754C8.6548 9.23137 9.23081 8.65188 9.23081 7.93865V6.18127Z" fill="white"/>
<path d="M7.5097 2.05061C7.24478 1.78 6.81549 1.78 6.55058 2.05061C6.28567 2.32122 6.28567 2.75973 6.55058 3.03034L6.91922 3.4069H6.05586C5.73749 3.4069 5.42868 3.47129 5.13584 3.59763C4.85497 3.71989 4.60282 3.8935 4.38579 4.11521C4.16875 4.33691 3.99879 4.59447 3.8791 4.88138C3.75542 5.1797 3.69238 5.49595 3.69238 5.82035V6.6933C3.69238 7.07556 3.9964 7.38612 4.37063 7.38612C4.74486 7.38612 5.04887 7.07556 5.04887 6.6933V5.82117C5.04887 5.54811 5.1542 5.29054 5.3457 5.09492C5.5372 4.8993 5.78935 4.79171 6.05666 4.79171H6.90965L6.55138 5.15768C6.28646 5.42829 6.28646 5.8668 6.55138 6.13741C6.68384 6.27271 6.85778 6.34036 7.03094 6.34036C7.20409 6.34036 7.37804 6.2727 7.5105 6.13741L9.03216 4.58305C9.29707 4.31245 9.29707 3.87393 9.03216 3.60333L7.5097 2.05061Z" fill="white"/>
</svg>
