<svg width="27" height="24" viewBox="0 0 27 24" fill="none" xmlns="http://www.w3.org/2000/svg">
<g clip-path="url(#clip0_2125_10922)">
<path d="M21.4795 15.179C19.9359 15.179 18.5644 15.8071 17.7098 16.774L10.352 13.6253C10.4754 13.2741 10.542 12.9027 10.542 12.5185C10.542 11.9981 10.4202 11.5012 10.1996 11.0464L17.9111 7.16653C18.7715 8.01221 20.0519 8.54958 21.4795 8.54958C24.0642 8.54958 26.167 6.78869 26.167 4.62428C26.167 2.45987 24.0642 0.698975 21.4795 0.698975C18.8948 0.698975 16.792 2.45987 16.792 4.62428C16.792 5.12454 16.9045 5.60312 17.1092 6.0435L9.37845 9.93304C8.51866 9.1123 7.25767 8.5932 5.85449 8.5932C3.2698 8.5932 1.16699 10.3541 1.16699 12.5185C1.16699 14.6829 3.2698 16.4438 5.85449 16.4438C7.42335 16.4438 8.81449 15.795 9.66579 14.801L17.0023 17.9406C16.8656 18.3085 16.792 18.6993 16.792 19.1043C16.792 21.2687 18.8948 23.0296 21.4795 23.0296C24.0642 23.0296 26.167 21.2687 26.167 19.1043C26.167 16.9399 24.0642 15.179 21.4795 15.179ZM21.4795 2.00741C23.2026 2.00741 24.6045 3.18134 24.6045 4.62428C24.6045 6.06722 23.2026 7.24115 21.4795 7.24115C19.7564 7.24115 18.3545 6.06722 18.3545 4.62428C18.3545 3.18134 19.7564 2.00741 21.4795 2.00741ZM5.85449 15.1354C4.13137 15.1354 2.72949 13.9614 2.72949 12.5185C2.72949 11.0756 4.13137 9.90163 5.85449 9.90163C7.57762 9.90163 8.97949 11.0756 8.97949 12.5185C8.97949 13.9614 7.57762 15.1354 5.85449 15.1354ZM21.4795 21.7212C19.7564 21.7212 18.3545 20.5472 18.3545 19.1043C18.3545 17.6614 19.7564 16.4874 21.4795 16.4874C23.2026 16.4874 24.6045 17.6614 24.6045 19.1043C24.6045 20.5472 23.2026 21.7212 21.4795 21.7212Z" fill="white"/>
</g>
<defs>
<clipPath id="clip0_2125_10922">
<rect width="26.6667" height="22.3306" fill="white" transform="translate(0.333496 0.698975)"/>
</clipPath>
</defs>
</svg>
