<svg width="11" height="11" viewBox="0 0 11 11" fill="none" xmlns="http://www.w3.org/2000/svg">
<path d="M2 5.45881H9.51953V6.125H2V5.45881ZM5.97478 4.77131L6.66228 5.13672H3.92294C3.72941 4.84659 3.6115 4.49219 3.6115 4.09481C3.60084 2.84872 4.56747 2 6.15731 2C6.51172 2 6.96306 2.04297 7.40341 2.17187C7.54297 2.21484 7.65056 2.2365 7.77947 2.25781C7.86541 2.50497 7.973 3.09588 7.973 3.82634C7.973 3.82634 7.55397 3.85866 7.54331 3.85866C7.36078 3.30006 6.88812 2.50497 6.10369 2.50497C5.37322 2.50497 4.9865 2.97763 4.9865 3.52556C4.9865 4.03053 5.42684 4.48119 5.97478 4.77131ZM6.75887 7.97266C6.75887 7.2635 6.22159 6.78019 5.663 6.44709H8.05859C8.17684 6.70491 8.25212 7.00569 8.25212 7.36009C8.25212 8.71378 7.14559 9.58381 5.48047 9.58381C4.48153 9.58381 3.84766 9.30434 3.62216 9.17544C3.40731 8.92828 3.26775 8.14419 3.26775 7.39206L3.68678 7.35975C3.90163 8.06891 4.64275 9.0785 5.57741 9.0785C6.38316 9.0785 6.75922 8.51991 6.75922 7.97197L6.75887 7.97266Z" fill="white"/>
</svg>
