<svg width="36" height="36" viewBox="0 0 36 36" fill="none" xmlns="http://www.w3.org/2000/svg">
<g clip-path="url(#clip0_2004_8324)">
<path d="M20.2499 2.24998C20.2499 3.49263 19.2426 4.49998 18 4.49998C16.7574 4.49998 15.75 3.49263 15.75 2.24998C15.75 1.00735 16.7574 0 18 0C19.2426 0 20.2499 1.00735 20.2499 2.24998Z" fill="url(#paint0_linear_2004_8324)"/>
<path fill-rule="evenodd" clip-rule="evenodd" d="M18 26.9999C22.9706 26.9999 26.9999 22.9706 26.9999 18C26.9999 13.0294 22.9706 9 18 9C13.0294 9 9 13.0294 9 18C9 22.9706 13.0294 26.9999 18 26.9999ZM18 22.4999C20.4853 22.4999 22.4999 20.4853 22.4999 18C22.4999 15.5147 20.4853 13.5 18 13.5C15.5147 13.5 13.5 15.5147 13.5 18C13.5 20.4853 15.5147 22.4999 18 22.4999Z" fill="url(#paint1_linear_2004_8324)"/>
<path d="M29.2498 8.99996C30.4925 8.99996 31.4998 7.99261 31.4998 6.74998C31.4998 5.50735 30.4925 4.5 29.2498 4.5C28.0072 4.5 26.9998 5.50735 26.9998 6.74998C26.9998 7.99261 28.0072 8.99996 29.2498 8.99996Z" fill="url(#paint2_linear_2004_8324)"/>
<path d="M8.99996 6.74998C8.99996 7.99261 7.99261 8.99996 6.74998 8.99996C5.50735 8.99996 4.5 7.99261 4.5 6.74998C4.5 5.50735 5.50735 4.5 6.74998 4.5C7.99261 4.5 8.99996 5.50735 8.99996 6.74998Z" fill="url(#paint3_linear_2004_8324)"/>
<path d="M18 31.4998C19.2426 31.4998 20.2499 32.507 20.2499 33.7498C20.2499 34.9925 19.2426 35.9998 18 35.9998C16.7574 35.9998 15.75 34.9925 15.75 33.7498C15.75 32.507 16.7574 31.4998 18 31.4998Z" fill="url(#paint4_linear_2004_8324)"/>
<path d="M31.4998 29.2498C31.4998 28.0072 30.4925 26.9998 29.2498 26.9998C28.0072 26.9998 26.9998 28.0072 26.9998 29.2498C26.9998 30.4925 28.0072 31.4998 29.2498 31.4998C30.4925 31.4998 31.4998 30.4925 31.4998 29.2498Z" fill="url(#paint5_linear_2004_8324)"/>
<path d="M6.74998 26.9998C7.99261 26.9998 8.99996 28.0072 8.99996 29.2498C8.99996 30.4925 7.99261 31.4998 6.74998 31.4998C5.50735 31.4998 4.5 30.4925 4.5 29.2498C4.5 28.0072 5.50735 26.9998 6.74998 26.9998Z" fill="url(#paint6_linear_2004_8324)"/>
<path d="M4.49998 18C4.49998 19.2426 3.49263 20.2499 2.24998 20.2499C1.00735 20.2499 0 19.2426 0 18C0 16.7574 1.00735 15.75 2.24998 15.75C3.49263 15.75 4.49998 16.7574 4.49998 18Z" fill="url(#paint7_linear_2004_8324)"/>
<path d="M33.7498 20.2499C34.9925 20.2499 35.9998 19.2426 35.9998 18C35.9998 16.7574 34.9925 15.75 33.7498 15.75C32.507 15.75 31.4998 16.7574 31.4998 18C31.4998 19.2426 32.507 20.2499 33.7498 20.2499Z" fill="url(#paint8_linear_2004_8324)"/>
</g>
<defs>
<linearGradient id="paint0_linear_2004_8324" x1="-3.46573" y1="-1.21706" x2="-3.46573" y2="36.9097" gradientUnits="userSpaceOnUse">
<stop stop-color="white"/>
<stop offset="1" stop-color="white" stop-opacity="0.72"/>
</linearGradient>
<linearGradient id="paint1_linear_2004_8324" x1="-3.46577" y1="-1.21701" x2="-3.46577" y2="36.9098" gradientUnits="userSpaceOnUse">
<stop stop-color="white"/>
<stop offset="1" stop-color="white" stop-opacity="0.72"/>
</linearGradient>
<linearGradient id="paint2_linear_2004_8324" x1="-3.4659" y1="-1.21704" x2="-3.4659" y2="36.9097" gradientUnits="userSpaceOnUse">
<stop stop-color="white"/>
<stop offset="1" stop-color="white" stop-opacity="0.72"/>
</linearGradient>
<linearGradient id="paint3_linear_2004_8324" x1="-3.46581" y1="-1.21704" x2="-3.46581" y2="36.9097" gradientUnits="userSpaceOnUse">
<stop stop-color="white"/>
<stop offset="1" stop-color="white" stop-opacity="0.72"/>
</linearGradient>
<linearGradient id="paint4_linear_2004_8324" x1="-3.46573" y1="-1.21712" x2="-3.46573" y2="36.9097" gradientUnits="userSpaceOnUse">
<stop stop-color="white"/>
<stop offset="1" stop-color="white" stop-opacity="0.72"/>
</linearGradient>
<linearGradient id="paint5_linear_2004_8324" x1="-3.4659" y1="-1.21713" x2="-3.4659" y2="36.9097" gradientUnits="userSpaceOnUse">
<stop stop-color="white"/>
<stop offset="1" stop-color="white" stop-opacity="0.72"/>
</linearGradient>
<linearGradient id="paint6_linear_2004_8324" x1="-3.46581" y1="-1.21713" x2="-3.46581" y2="36.9097" gradientUnits="userSpaceOnUse">
<stop stop-color="white"/>
<stop offset="1" stop-color="white" stop-opacity="0.72"/>
</linearGradient>
<linearGradient id="paint7_linear_2004_8324" x1="-3.46583" y1="-1.21697" x2="-3.46583" y2="36.9098" gradientUnits="userSpaceOnUse">
<stop stop-color="white"/>
<stop offset="1" stop-color="white" stop-opacity="0.72"/>
</linearGradient>
<linearGradient id="paint8_linear_2004_8324" x1="-3.46589" y1="-1.21697" x2="-3.46589" y2="36.9098" gradientUnits="userSpaceOnUse">
<stop stop-color="white"/>
<stop offset="1" stop-color="white" stop-opacity="0.72"/>
</linearGradient>
<clipPath id="clip0_2004_8324">
<rect width="36" height="36" fill="white"/>
</clipPath>
</defs>
</svg>
