<svg width="50" height="50" viewBox="0 0 50 50" fill="none" xmlns="http://www.w3.org/2000/svg">
<path d="M44.3767 5.98634C43.8896 6.00771 43.4156 6.14326 42.988 6.31447C42.5649 6.48452 40.1286 7.52435 36.531 9.06251C32.9334 10.6007 28.2567 12.6037 23.6208 14.5899C14.3491 18.5622 5.23802 22.4707 5.23802 22.4707L5.30443 22.4453C5.30443 22.4453 4.75453 22.6291 4.19701 23.0176C3.91825 23.2118 3.61834 23.4626 3.37279 23.8281C3.12723 24.1937 2.94772 24.7118 3.01537 25.2598C3.25299 27.1845 5.24779 27.7305 5.24779 27.7305L5.2556 27.7344L14.1579 30.7813C14.3849 31.5384 16.8581 39.7929 17.4021 41.541C17.7025 42.5075 17.9838 43.065 18.2771 43.4453C18.4239 43.6356 18.5777 43.7829 18.7478 43.8906C18.8154 43.9334 18.8864 43.9655 18.9568 43.9942H18.9607C18.9693 43.998 18.9775 43.9983 18.9861 44.002L18.9626 43.9961C18.979 44.0027 18.9951 44.0138 19.0115 44.0195C19.0432 44.0307 19.0626 44.0303 19.1033 44.0391C20.1228 44.3951 20.9665 43.7344 20.9665 43.7344L21.0017 43.707L26.4704 38.6348L35.3454 45.5547L35.4568 45.6055C37.0102 46.2952 38.4151 45.9104 39.1931 45.2774C39.9711 44.6443 40.2771 43.8281 40.2771 43.8281L40.3103 43.7422L46.8318 9.75197C46.9986 8.99153 47.0224 8.33421 46.865 7.74025C46.7076 7.14628 46.3252 6.62995 45.8454 6.34376C45.3657 6.05758 44.8637 5.96497 44.3767 5.98634ZM44.4294 8.01954C44.6272 8.01038 44.7738 8.033 44.8201 8.06056C44.8663 8.08812 44.887 8.0845 44.9314 8.25197C44.9758 8.41944 44.9998 8.77217 44.8786 9.32423L44.8747 9.33595L38.3904 43.1289C38.375 43.1629 38.2399 43.4755 37.9314 43.7266C37.6167 43.9827 37.2666 44.1826 36.3376 43.793L26.6326 36.2246L26.3591 36.0098L26.3533 36.0156L23.4509 33.8379L39.7615 14.6485C39.8868 14.5014 39.9668 14.3212 39.9919 14.1296C40.017 13.938 39.986 13.7432 39.9028 13.5688C39.8195 13.3945 39.6875 13.248 39.5227 13.147C39.358 13.0461 39.1675 12.995 38.9743 13C38.7856 13.0049 38.6021 13.0631 38.4451 13.168L14.8435 28.9024L5.92748 25.8496C5.92748 25.8496 5.04212 25.3569 4.99974 25.0137C4.99739 24.9947 4.98694 25.0119 5.03295 24.9434C5.07895 24.8749 5.1946 24.7592 5.33959 24.6582C5.62956 24.4562 5.96068 24.334 5.96068 24.334L5.99388 24.3223L6.02709 24.3086C6.02709 24.3086 15.1386 20.3999 24.4099 16.4277C29.0455 14.4417 33.7214 12.4401 37.3181 10.9024C40.9139 9.36497 43.5122 8.25838 43.7322 8.16993C43.9826 8.06964 44.2316 8.0287 44.4294 8.01954ZM33.613 18.793L21.2439 33.3457L21.238 33.3516C21.2187 33.3748 21.2005 33.3989 21.1833 33.4238C21.1637 33.4509 21.1455 33.4789 21.1286 33.5078C21.0592 33.6258 21.0146 33.7567 20.9978 33.8926C20.9978 33.8952 20.9978 33.8978 20.9978 33.9004L19.3865 41.1465C19.3597 41.0682 19.3409 41.0396 19.3122 40.9473V40.9453C18.8005 39.3009 16.4671 31.5161 16.1443 30.4395L33.613 18.793ZM22.6404 35.7305L24.863 37.3984L21.5974 40.4258L22.6404 35.7305Z" fill="white"/>
</svg>
