<svg width="10" height="11" viewBox="0 0 10 11" fill="none" xmlns="http://www.w3.org/2000/svg">
<path d="M8.08333 2.125L7.64951 8.63199C7.61154 9.20187 7.59253 9.48685 7.46946 9.70292C7.36107 9.89315 7.1976 10.0461 7.0006 10.1416C6.77683 10.25 6.49121 10.25 5.92002 10.25H3.74662C3.17544 10.25 2.88984 10.25 2.66607 10.1416C2.46905 10.0461 2.30559 9.89315 2.19721 9.70292C2.07412 9.48685 2.05512 9.20187 2.01713 8.63199L1.58333 2.125M0.5 2.125H9.16667M7 2.125L6.85342 1.6852C6.71135 1.25901 6.64028 1.04591 6.50855 0.888364C6.3922 0.749237 6.2428 0.641548 6.07402 0.575173C5.88287 0.5 5.65829 0.5 5.20903 0.5H4.45763C4.00837 0.5 3.7838 0.5 3.59265 0.575173C3.42387 0.641548 3.27446 0.749237 3.15812 0.888364C3.02636 1.04591 2.95533 1.25901 2.81326 1.6852L2.66667 2.125" stroke="white" stroke-linecap="round" stroke-linejoin="round"/>
</svg>
