<svg width="116" height="88" viewBox="0 0 116 88" fill="none" xmlns="http://www.w3.org/2000/svg">
<path fill-rule="evenodd" clip-rule="evenodd" d="M35.9048 33C35.9048 20.8497 45.7971 11 58 11C70.2026 11 80.0952 20.8497 80.0952 33V38.5H85.619C96.2966 38.5 104.952 47.1185 104.952 57.75C104.952 68.3815 96.2966 77 85.619 77H80.0952C77.0444 77 74.5714 79.4624 74.5714 82.5C74.5714 85.5376 77.0444 88 80.0952 88H85.619C102.398 88 116 74.4568 116 57.75C116 42.7861 105.088 30.3598 90.754 27.9303C88.3047 12.1117 74.5731 0 58 0C41.4271 0 27.6953 12.1117 25.2458 27.9303C10.9123 30.3598 0 42.7861 0 57.75C0 74.4568 13.602 88 30.381 88H35.9048C38.9555 88 41.4286 85.5376 41.4286 82.5C41.4286 79.4624 38.9555 77 35.9048 77H30.381C19.7034 77 11.0476 68.3815 11.0476 57.75C11.0476 47.1185 19.7034 38.5 30.381 38.5H35.9048V33ZM78.4773 51.111L61.9059 34.611C59.7488 32.463 56.2512 32.463 54.0941 34.611L37.5226 51.111C35.3655 53.2587 35.3655 56.7413 37.5226 58.889C39.6798 61.0368 43.1773 61.0368 45.3345 58.889L52.4762 51.7781V82.5C52.4762 85.5376 54.9492 88 58 88C61.0508 88 63.5238 85.5376 63.5238 82.5V51.7781L70.6655 58.889C72.8226 61.0368 76.3203 61.0368 78.4773 58.889C80.6344 56.7413 80.6344 53.2587 78.4773 51.111Z" fill="white"/>
</svg>
