<svg width="50" height="50" viewBox="0 0 50 50" fill="none" xmlns="http://www.w3.org/2000/svg">
<path d="M11.9792 6.25C8.83357 6.25 6.25 8.83357 6.25 11.9792V38.0208C6.25 41.1664 8.83357 43.75 11.9792 43.75H38.0208C41.1664 43.75 43.75 41.1664 43.75 38.0208V11.9792C43.75 8.83357 41.1664 6.25 38.0208 6.25H11.9792ZM11.9792 9.375H38.0208C39.4773 9.375 40.625 10.5227 40.625 11.9792V38.0208C40.625 39.4773 39.4773 40.625 38.0208 40.625H11.9792C10.5227 40.625 9.375 39.4773 9.375 38.0208V11.9792C9.375 10.5227 10.5227 9.375 11.9792 9.375ZM14.3921 17.8385C13.664 17.8385 13.5417 18.1958 13.5417 18.5771C13.5417 19.2656 14.1153 22.9873 17.2424 27.2664C19.5101 30.3696 22.4976 32.1594 25.1424 32.1594C26.7445 32.1594 26.9084 31.7532 26.9084 31.1157V28.2776C26.9094 27.513 27.0846 27.3865 27.594 27.3865C27.9575 27.3865 28.6987 27.624 30.131 29.2948C31.7831 31.2219 32.0833 32.1594 33.0302 32.1594H35.5306C36.1108 32.1594 36.4428 31.9172 36.4563 31.4453C36.4594 31.3255 36.4419 31.1904 36.4034 31.0404C36.218 30.4904 35.3693 29.1438 34.3099 27.8625C33.7224 27.1532 33.1422 26.4514 32.8756 26.0701C32.6974 25.8212 32.6292 25.6438 32.6375 25.4761C32.6459 25.299 32.7381 25.1326 32.8756 24.8983C32.8516 24.8983 36.0817 20.3605 36.3973 18.8314C36.441 18.6876 36.4615 18.5534 36.4563 18.4347C36.4417 18.0888 36.2059 17.8385 35.6466 17.8385H33.1462C32.5149 17.8385 32.2245 18.2212 32.0536 18.6035C32.0536 18.6035 30.4946 21.8112 28.6987 23.9258C28.1164 24.5383 27.8201 24.5219 27.5045 24.5219C27.3357 24.5219 26.9084 24.3173 26.9084 23.7569V18.807C26.9084 18.1445 26.7439 17.8385 26.2105 17.8385H21.7712C21.3827 17.8385 21.1812 18.1436 21.1812 18.4509C21.1812 19.0874 22.0395 19.2402 22.1375 21.0246V24.4853C22.1375 25.3259 21.9912 25.4761 21.6756 25.4761C20.8256 25.4761 19.1516 22.612 18.0318 18.8578C17.7891 18.1193 17.5461 17.8385 16.9149 17.8385H14.3921Z" fill="white"/>
</svg>
