<svg width="362" height="362" viewBox="0 0 362 362" fill="none" xmlns="http://www.w3.org/2000/svg">
<g clip-path="url(#clip0_2401_18884)">
<path d="M316.75 282.812H158.375V305.438H316.75V282.812Z" fill="white"/>
<path d="M81.1107 294.125L51.9244 323.311L67.875 339.375L113.125 294.125L67.875 248.875L51.8113 264.826L81.1107 294.125Z" fill="white"/>
<path d="M316.75 169.688H158.375V192.312H316.75V169.688Z" fill="white"/>
<path d="M81.1107 181L51.9244 210.186L67.875 226.25L113.125 181L67.875 135.75L51.8113 151.701L81.1107 181Z" fill="white"/>
<path d="M316.75 56.5625H158.375V79.1875H316.75V56.5625Z" fill="white"/>
<path d="M81.1107 67.875L51.9244 97.0612L67.875 113.125L113.125 67.875L67.875 22.625L51.8113 38.5756L81.1107 67.875Z" fill="white"/>
</g>
<defs>
<clipPath id="clip0_2401_18884">
<rect width="362" height="362" fill="white"/>
</clipPath>
</defs>
</svg>
