<svg width="100" height="100" viewBox="0 0 100 100" fill="none" xmlns="http://www.w3.org/2000/svg">
<g clip-path="url(#clip0_2373_18927)">
<path fill-rule="evenodd" clip-rule="evenodd" d="M12.5999 0.149L11.8499 0.2774L11.2191 0.4429L10.5883 0.6085L9.86911 0.8669L9.14991 1.1253L8.29521 1.5535L7.44051 1.9816L6.51491 2.6007L5.58941 3.2198L4.67931 4.0849L3.76921 4.95L3.08761 5.8308L2.40611 6.7117L1.91711 7.5808L1.42821 8.45L1.05701 9.3799L0.685911 10.3098L0.451411 11.2343L0.216911 12.1587L0.104011 12.9544L-0.00878906 13.75L0.0218109 50.5L0.0524109 87.25L0.317211 88.3L0.582011 89.35L0.853611 90.1L1.12521 90.85L1.55341 91.7047L1.98151 92.5594L2.60061 93.485L3.21971 94.4105L4.08481 95.3206L4.94991 96.2307L5.83071 96.9123L6.71161 97.5938L7.58071 98.0828L8.44991 98.5717L9.37981 98.9429L10.3097 99.314L11.2342 99.5485L12.1586 99.783L12.9543 99.8959L13.7499 100.009L50.4999 99.9781L87.2499 99.9475L88.2999 99.6827L89.3499 99.4179L90.0999 99.1463L90.8499 98.8747L91.7046 98.4465L92.5593 98.0184L93.4849 97.3993L94.4104 96.7802L95.3205 95.9151L96.2306 95.05L96.9122 94.1692L97.5937 93.2883L98.0827 92.4192L98.5716 91.55L98.9428 90.6201L99.3139 89.6902L99.5581 88.7276L99.8023 87.765L99.8652 87.2297L99.9281 86.6944L100.014 86.6413L100.1 86.5882V49.8882V13.1882L99.9999 13.25L99.8999 13.3118V13.0542V12.7965L99.6903 11.8289L99.4806 10.8613L99.1787 10.0057L98.8767 9.15L98.4475 8.2953L98.0183 7.4406L97.3992 6.515L96.7801 5.5895L95.915 4.6794L95.0499 3.7693L94.1691 3.0877L93.2882 2.4062L92.4191 1.9172L91.5499 1.4283L90.6499 1.0699L89.7499 0.7116L88.9999 0.5087L88.2499 0.3058L87.3618 0.1529L86.4737 0L49.9118 0.0103L13.3499 0.0205L12.5999 0.149ZM46.715 7.2079L45.2801 7.2858L44.165 7.3986L43.0499 7.5114L41.7999 7.7081L40.5499 7.9049L39.4499 8.1976L38.3499 8.4903L37.0375 8.9403L35.7252 9.3904L34.3069 9.997L32.8886 10.6036L32.0012 11.0493L31.1139 11.495L29.7819 12.2601L28.4499 13.0252L27.2907 13.8106L26.1315 14.596L25.3407 15.2063L24.5499 15.8165L23.3999 16.7971L22.2499 17.7776L20.6487 19.4138L19.0475 21.05L17.9859 22.3768L16.9242 23.7036L16.1371 24.8244L15.3499 25.9452L14.5653 27.2476L13.7806 28.55L12.9955 30.1133L12.2104 31.6767L11.7119 32.8633L11.2134 34.05L10.72 35.5L10.2266 36.95L9.86721 38.35L9.50791 39.75L9.26041 41.1L9.01301 42.45L8.85461 43.8L8.69621 45.15L8.63501 47.05L8.57371 48.95L8.69021 50.55L8.80671 52.15L8.95671 53.2L9.10661 54.25L9.31051 55.3L9.51441 56.35L9.91831 57.9434L10.3221 59.5369L10.8674 61.1434L11.4127 62.75L11.9155 63.95L12.4183 65.15L13.1609 66.6381L13.9036 68.1261L14.4681 69.0881L15.0325 70.05L15.7331 71.1L16.4336 72.15L17.0339 72.95L17.6342 73.75L18.3408 74.6L19.0475 75.45L19.9389 76.4L20.8303 77.35L21.8901 78.3413L22.9499 79.3327L24.2499 80.3736L25.5499 81.4145L26.9499 82.3464L28.3499 83.2783L29.6483 84.0097L30.9467 84.7412L32.3983 85.4086L33.8499 86.0761L35.1999 86.5808L36.5499 87.0855L37.7499 87.4397L38.9499 87.7939L40.2147 88.0958L41.4796 88.3977L43.0147 88.6435L44.5499 88.8892L45.6999 89.0189L46.8499 89.1486L50.2999 89.1457L53.7499 89.1428L54.6999 89.0187L55.6499 88.8946L56.1499 88.7517L56.6499 88.6088L56.8465 88.465L57.043 88.3211L56.9235 87.3856L56.804 86.45L56.4979 85.2L56.1918 83.95L55.691 82.45L55.1902 80.95L54.82 80.2501L54.4499 79.5502L54.2764 79.5181L54.1028 79.4859L53.5703 79.9895L53.0378 80.4932L52.6439 81.1678L52.2499 81.8424L51.91 82.1827L51.5701 82.5231L51.16 82.7094L50.7499 82.8956L50.0909 82.8978L49.4318 82.9L48.819 82.5938L48.2062 82.2875L47.628 81.6561L47.0499 81.0247L46.6673 80.3374L46.2847 79.65L45.7284 78.4L45.1721 77.15L44.4868 75.3163L43.8016 73.4826L43.3564 72.0663L42.9112 70.65L42.6638 69.75L42.4164 68.85L42.2081 67.8767L41.9999 66.9035L42.0014 66.2267L42.0028 65.55L42.1264 65.3096L42.2499 65.0693L42.4999 64.8839L42.7499 64.6986L43.3499 64.5989L43.9499 64.4991L46.3999 64.4167L48.8499 64.3343L49.1501 64.1774L49.4504 64.0205L49.6501 63.8L49.8499 63.5795L49.884 62.5993L49.918 61.6191L49.807 61.0846L49.6959 60.55L49.4531 60.0263L49.2103 59.5025L48.7452 59.0054L48.2802 58.5082L47.8151 58.2109L47.3499 57.9135L46.5939 57.6607L45.838 57.4078L44.692 57.2576L43.546 57.1074L43.1218 56.9577L42.6977 56.8081L42.2507 56.5006L41.8037 56.193L41.4554 55.7368L41.107 55.2805L40.8784 54.7153L40.6499 54.15L40.6514 50.55L40.653 46.95L40.8758 46.0699L41.0986 45.1897L41.4368 44.4577L41.775 43.7256L42.2061 43.0878L42.6371 42.45L43.2435 41.8436L43.8499 41.2372L44.4821 40.81L45.1144 40.3827L45.7441 40.088L46.3739 39.7933L47.0619 39.5964L47.7499 39.3994L48.8821 39.2886L50.0144 39.1779L52.4821 39.2275L54.9499 39.2772L55.4868 39.4327L56.0236 39.5882L56.5818 39.8691L57.1399 40.15L57.7113 40.6778L58.2826 41.2055L58.6062 41.7099L58.9299 42.2143L59.1662 42.8652L59.4025 43.5162L59.5529 45.3709L59.7033 47.2257L59.857 47.9013L60.0107 48.5769L60.3303 49.11L60.6499 49.6431L61.1499 50.0249L61.6499 50.4066L62.951 51.0524L64.2522 51.6981L64.801 51.8923L65.3499 52.0866L65.4273 52.0109L65.5046 51.9353L65.6062 51.3426L65.7077 50.75L65.7948 47.6L65.8819 44.45L66.0447 43.85L66.2076 43.25L66.4897 42.65L66.7719 42.05L67.2255 41.4388L67.6791 40.8277L68.2729 40.3707L68.8668 39.9138L69.4583 39.6183L70.0499 39.3229L70.3999 39.2163L70.7499 39.1097L71.3802 38.9995L72.0104 38.8893L75.7802 38.9981L79.5499 39.1069L80.0999 39.1947L80.6499 39.2826L81.2235 39.4979L81.797 39.7133L82.409 40.122L83.021 40.5307L83.4638 41.0903L83.9066 41.65L84.2083 42.2573L84.5099 42.8646L84.6574 43.7073L84.8049 44.55L84.8955 46.375L84.9862 48.2L84.8941 50.025L84.802 51.85L84.6611 52.7L84.5201 53.55L84.3118 54.0741L84.1035 54.5983L83.8347 55.0241L83.5658 55.45L83.0353 55.9598L82.5047 56.4696L81.9071 56.7881L81.3095 57.1066L80.4748 57.289L79.6402 57.4714L79.4342 57.5816L79.2282 57.6919L79.0474 57.9679L78.8666 58.2438V58.6757V59.1077L79.0666 59.3788L79.2666 59.65L80.5083 60.377L81.7499 61.104L83.8028 62.1364L85.8557 63.1689L86.6531 63.4344L87.4506 63.7H87.8232H88.1958L88.3928 63.3139L88.5897 62.9279L88.992 61.5389L89.3942 60.15L89.8443 58.2902L90.2944 56.4303L90.5967 54.9318L90.8991 53.4332L91.1066 52.1416L91.3141 50.85L91.3704 48.8881L91.4267 46.9262L91.3077 45.7881L91.1888 44.65L90.8424 42.5847L90.496 40.5193L90.099 38.9086L89.7019 37.2978L89.2904 36.0239L88.8788 34.75L88.3465 33.4L87.8142 32.05L87.2234 30.8L86.6326 29.55L85.9066 28.25L85.1807 26.95L84.1487 25.4L83.1167 23.85L82.0345 22.5L80.9523 21.15L79.3511 19.5116L77.7499 17.8732L76.5499 16.8553L75.3499 15.8375L74.5409 15.2265L73.732 14.6154L72.5409 13.821L71.3499 13.0266L70.3575 12.4553L69.3651 11.884L68.1075 11.2543L66.8499 10.6247L65.8499 10.1986L64.8499 9.7726L63.7999 9.382L62.7499 8.9913L61.2115 8.5374L59.673 8.0834L58.4615 7.8476L57.2499 7.6118L55.8999 7.4566L54.5499 7.3014L52.6499 7.2016L50.7499 7.1018L49.4499 7.1159L48.1499 7.13L46.715 7.2079ZM49.0358 13.5318L48.5499 13.8635L47.8999 14.6703L47.2499 15.477L46.5156 16.7349L45.7813 17.9927L45.1529 19.3714L44.5244 20.75L44.0239 22.1L43.5234 23.45L43.1621 24.7L42.8008 25.95L42.5828 26.95L42.3648 27.95L42.3574 28.95L42.3499 29.95L42.6418 30.5446L42.9337 31.1391L43.3722 31.5775L43.8106 32.016L44.3803 32.283L44.9499 32.55H49.9499H54.9499L55.5125 32.2736L56.0752 31.9972L56.5445 31.4954L57.0139 30.9936L57.2567 30.4632L57.4995 29.9328L57.5591 29.3414L57.6186 28.75L57.4051 27.7L57.1915 26.65L56.8838 25.5535L56.5761 24.457L56.0836 23.0119L55.591 21.5667L55.0864 20.3084L54.5819 19.05L53.7417 17.35L52.9014 15.65L52.3257 14.8529L51.7499 14.0558L50.9999 13.6289L50.2499 13.202L49.8858 13.201L49.5217 13.2L49.0358 13.5318ZM0.0494109 50V86.75L0.0749109 68.375L0.100411 50L0.0749109 31.625L0.0494109 13.25V50ZM38.1999 15.0515L37.6499 15.1886L36.9999 15.4544L36.3499 15.7201L35.0999 16.3549L33.8499 16.9896L32.4521 17.8503L31.0543 18.711L29.9021 19.5223L28.7499 20.3335L27.5651 21.2812L26.3803 22.2289L25.2151 23.3916L24.0499 24.5542L23.1125 25.6431L22.1752 26.7319L21.3036 27.9005L20.432 29.0691L19.9243 29.9096L19.4167 30.75L19.2083 31.2787L18.9999 31.8074V31.9949V32.1824L19.3749 32.2456L19.7499 32.3088L20.5999 32.4118L21.4499 32.5147L27.0999 32.5681L32.7499 32.6216L33.1656 32.5094L33.5814 32.3973L34.0656 32.0736L34.5499 31.75L34.8559 31.2921L35.162 30.8342L35.5925 29.1421L36.023 27.45L36.6654 25.3L37.3078 23.15L37.7141 21.9L38.1204 20.65L38.5611 18.9196L39.0018 17.1892L39.1218 16.239L39.2418 15.2888L39.1351 15.1194L39.0285 14.95L38.8892 14.9322L38.7499 14.9144L38.1999 15.0515ZM61.3466 15.4998L60.9434 15.6994L60.7716 15.9901L60.5999 16.2809V16.6535V17.0262L61.7437 20.6381L62.8876 24.25L63.3495 25.8L63.8114 27.35L64.263 29.1L64.7145 30.85L64.9136 31.1721L65.1126 31.4942L65.5642 31.8917L66.0158 32.2892L66.516 32.4553L67.0162 32.6215L72.583 32.5695L78.1499 32.5175L78.9999 32.4089L79.8499 32.3004L80.3326 32.1884L80.8152 32.0764L80.8702 31.9333L80.9251 31.7901L80.719 31.1866L80.5129 30.583L79.9814 29.7322L79.4499 28.8815L78.4016 27.5658L77.3533 26.25L75.6516 24.513L73.9499 22.776L72.8999 21.8533L71.8499 20.9307L70.8499 20.1486L69.8499 19.3665L68.7499 18.6455L67.6499 17.9244L66.5499 17.3291L65.4499 16.7339L64.3999 16.2529L63.3499 15.7719L62.6768 15.5359L62.0037 15.3L61.8768 15.3001L61.7499 15.3002L61.3466 15.4998ZM20.5215 38.9026L19.0931 38.9853L18.01 39.1441L16.9269 39.303L16.4543 39.464L15.9818 39.625L15.8037 39.9178L15.6256 40.2106L15.5125 40.9303L15.3993 41.65L15.3049 42.8L15.2106 43.95L15.1457 46.35L15.0808 48.75L15.1916 51.2L15.3024 53.65L15.4109 54.55L15.5194 55.45L15.6846 55.95L15.8499 56.45L16.1999 56.6183L16.5499 56.7866L17.2999 56.9377L18.0499 57.0889L19.3499 57.2088L20.6499 57.3288L23.6499 57.3376L26.6499 57.3464L27.4092 57.1313L28.1686 56.9162L28.8298 56.6164L29.4911 56.3165L30.0685 55.9333L30.646 55.55L31.2824 54.9547L31.9187 54.3595L32.3475 53.7547L32.7763 53.15L33.0741 52.55L33.3719 51.95L33.5808 51.3L33.7897 50.65L33.8948 50.0566L33.9999 49.4633V48.0927V46.7221L33.8435 45.8975L33.687 45.0728L33.3884 44.3212L33.0898 43.5695L32.6339 42.8646L32.1779 42.1598L31.5639 41.5185L30.9499 40.8772L30.341 40.4413L29.7321 40.0055L28.991 39.6543L28.2499 39.3032L27.4499 39.0868L26.6499 38.8705L24.2999 38.8452L21.9499 38.8199L20.5215 38.9026ZM50.94 49.651L50.7756 49.902L51.1942 51.576L51.6129 53.25L52.5645 56.75L53.5162 60.25L55.0641 65.8L56.6121 71.35L58.151 76.75L59.6899 82.15L60.5991 85.25L61.5084 88.35L61.9166 89.6231L62.3249 90.8963L62.4611 91.0093L62.5973 91.1223L62.8736 91.0548L63.1499 90.9873L63.725 90.3865L64.3001 89.7856L65.5648 87.8678L66.8296 85.95L67.4595 85L68.0895 84.05L68.6422 83.3807L69.195 82.7113L69.658 82.44L70.121 82.1686L70.5463 82.1751L70.9716 82.1815L71.4108 82.403L71.8499 82.6246L72.7529 83.5373L73.6558 84.45L75.4513 86.65L77.2467 88.85L78.1267 89.8698L79.0067 90.8896L79.773 91.5957L80.5393 92.3017L81.0392 92.5509L81.5392 92.8H82.0305H82.5219L83.1044 92.4895L83.6869 92.1791L84.8764 90.9645L86.0659 89.75L86.3496 89.3199L86.6332 88.8898V88.4652V88.0405L86.3142 87.4453L85.9952 86.85L85.4187 86.0482L84.8423 85.2463L82.4863 82.2482L80.1303 79.25L79.477 78.35L78.8236 77.45L78.5699 76.9445L78.3163 76.439L78.2488 76.0792L78.1813 75.7194L78.348 75.3682L78.5146 75.017L78.8823 74.763L79.2499 74.5089L79.8999 74.2157L80.5499 73.9224L83.2499 72.8727L85.9499 71.823L87.0244 71.351L88.0989 70.879L88.4909 70.595L88.8829 70.311L88.9497 70.1006L89.0165 69.8902L88.8654 69.6596L88.7143 69.429L88.1614 69.062L87.6085 68.695L85.5292 67.5367L83.4499 66.3784L79.2499 64.1032L75.0499 61.8281L70.4499 59.3752L65.8499 56.9222L62.2999 55.0467L58.7499 53.1711L55.0403 51.2855L51.3306 49.4H51.2176H51.1045L50.94 49.651ZM20.7541 64.4735L20.5582 64.5227L20.324 64.6762L20.0897 64.8297L19.9448 65.1099L19.7999 65.3901L19.8011 65.72L19.8023 66.05L20.1261 66.6263L20.4499 67.2026L21.0913 68.1074L21.7327 69.0121L22.6521 70.0811L23.5715 71.15L25.1166 72.65L26.6616 74.15L27.9557 75.2107L29.2499 76.2714L30.376 77.08L31.5022 77.8886L32.6056 78.5534L33.709 79.2182L35.0294 79.8432L36.3499 80.4683L37.5575 80.9841L38.765 81.5H39.1252H39.4854L39.6983 81.2293L39.9112 80.9587L39.8496 80.7043L39.7879 80.45L39.4504 79.7926L39.1128 79.1353L38.701 77.9426L38.2892 76.75L37.7503 74.9L37.2113 73.05L36.952 72.0178L36.6928 70.9856L36.4421 70.3178L36.1914 69.65L35.8031 69L35.4147 68.35L34.9323 67.7871L34.4499 67.2242L33.8999 66.7547L33.3499 66.2853L32.717 65.9296L32.0841 65.5739L31.417 65.295L30.7499 65.016L29.9974 64.8618L29.2448 64.7075L26.0474 64.6054L22.8499 64.5032L21.8999 64.4638L20.9499 64.4244L20.7541 64.4735Z" fill="#9B71EA"/>
<path fill-rule="evenodd" clip-rule="evenodd" d="M46.715 7.20766L45.2801 7.28556L44.165 7.39836L43.0499 7.51116L41.7999 7.70786L40.5499 7.90466L39.4499 8.19736L38.3499 8.49006L37.0375 8.94006L35.7252 9.39016L34.3069 9.99676L32.8886 10.6034L32.0012 11.0491L31.1139 11.4948L29.7819 12.2599L28.4499 13.025L27.2907 13.8104L26.1315 14.5958L25.3407 15.2061L24.5499 15.8163L23.3999 16.7969L22.2499 17.7774L20.6487 19.4136L19.0475 21.0498L17.9859 22.3766L16.9242 23.7034L16.1371 24.8242L15.3499 25.945L14.5653 27.2474L13.7806 28.5498L12.9955 30.1131L12.2104 31.6765L11.7119 32.8631L11.2134 34.0498L10.72 35.4998L10.2266 36.9498L9.86723 38.3498L9.50793 39.7498L9.26043 41.0998L9.01303 42.4498L8.85463 43.7998L8.69623 45.1498L8.63503 47.0498L8.57373 48.9498L8.69023 50.5498L8.80673 52.1498L8.95673 53.1998L9.10663 54.2498L9.31053 55.2998L9.51443 56.3498L9.91833 57.9432L10.3221 59.5367L10.8674 61.1432L11.4127 62.7498L11.9155 63.9498L12.4183 65.1498L13.1609 66.6379L13.9036 68.1259L14.4681 69.0879L15.0325 70.0498L15.7331 71.0998L16.4336 72.1498L17.0339 72.9498L17.6342 73.7498L18.3408 74.5998L19.0475 75.4498L19.9389 76.3998L20.8303 77.3498L21.8901 78.3411L22.9499 79.3325L24.2499 80.3734L25.5499 81.4143L26.9499 82.3462L28.3499 83.2781L29.6483 84.0095L30.9467 84.741L32.3983 85.4084L33.8499 86.0759L35.1999 86.5806L36.5499 87.0853L37.7499 87.4395L38.9499 87.7937L40.2147 88.0956L41.4796 88.3975L43.0147 88.6433L44.5499 88.889L45.6999 89.0187L46.8499 89.1484L50.2999 89.1455L53.7499 89.1426L54.6999 89.0185L55.6499 88.8944L56.1499 88.7515L56.6499 88.6086L56.8465 88.4648L57.043 88.3209L56.9235 87.3854L56.804 86.4498L56.4979 85.1998L56.1918 83.9498L55.691 82.4498L55.1902 80.9498L54.82 80.2499L54.4499 79.55L54.2764 79.5179L54.1028 79.4857L53.5703 79.9893L53.0378 80.493L52.6439 81.1676L52.2499 81.8422L51.91 82.1825L51.5701 82.5229L51.16 82.7092L50.7499 82.8954L50.0909 82.8976L49.4318 82.8998L48.819 82.5936L48.2062 82.2873L47.628 81.6559L47.0499 81.0245L46.6673 80.3372L46.2847 79.6498L45.7284 78.3998L45.1721 77.1498L44.4868 75.3161L43.8016 73.4824L43.3564 72.0661L42.9112 70.6498L42.6638 69.7498L42.4164 68.8498L42.2081 67.8765L41.9999 66.9033L42.0014 66.2265L42.0028 65.5498L42.1264 65.3094L42.2499 65.0691L42.4999 64.8837L42.7499 64.6984L43.3499 64.5987L43.9499 64.4989L46.3999 64.4165L48.8499 64.3341L49.1501 64.1772L49.4504 64.0203L49.6501 63.7998L49.8499 63.5793L49.884 62.5991L49.918 61.6189L49.807 61.0844L49.6959 60.5498L49.4531 60.0261L49.2103 59.5023L48.7452 59.0052L48.2802 58.508L47.8151 58.2107L47.3499 57.9133L46.5939 57.6605L45.838 57.4076L44.692 57.2574L43.546 57.1072L43.1218 56.9575L42.6977 56.8079L42.2507 56.5004L41.8037 56.1928L41.4554 55.7366L41.107 55.2803L40.8784 54.7151L40.6499 54.1498L40.6514 50.5498L40.653 46.9498L40.8758 46.0697L41.0986 45.1895L41.4368 44.4575L41.775 43.7254L42.2061 43.0876L42.6371 42.4498L43.2435 41.8434L43.8499 41.237L44.4821 40.8098L45.1144 40.3825L45.7441 40.0878L46.3739 39.7931L47.0619 39.5962L47.7499 39.3992L48.8821 39.2884L50.0144 39.1777L52.4821 39.2273L54.9499 39.277L55.4868 39.4325L56.0236 39.588L56.5818 39.8689L57.1399 40.1498L57.7113 40.6776L58.2826 41.2053L58.6062 41.7097L58.9299 42.2141L59.1662 42.865L59.4025 43.516L59.5529 45.3707L59.7033 47.2255L59.857 47.9011L60.0107 48.5767L60.3303 49.1098L60.6499 49.6429L61.1499 50.0247L61.6499 50.4064L62.951 51.0522L64.2522 51.6979L64.801 51.8921L65.3499 52.0864L65.4273 52.0107L65.5046 51.9351L65.6062 51.3424L65.7077 50.7498L65.7948 47.5998L65.8819 44.4498L66.0447 43.8498L66.2076 43.2498L66.4897 42.6498L66.7719 42.0498L67.2255 41.4386L67.6791 40.8275L68.2729 40.3705L68.8668 39.9136L69.4583 39.6181L70.0499 39.3227L70.3999 39.2161L70.7499 39.1095L71.3802 38.9993L72.0104 38.8891L75.7802 38.9979L79.5499 39.1067L80.0999 39.1945L80.6499 39.2824L81.2235 39.4977L81.797 39.7131L82.409 40.1218L83.021 40.5305L83.4638 41.0901L83.9066 41.6498L84.2083 42.2571L84.5099 42.8644L84.6574 43.7071L84.8049 44.5498L84.8955 46.3748L84.9862 48.1998L84.8941 50.0248L84.802 51.8498L84.6611 52.6998L84.5201 53.5498L84.3118 54.0739L84.1035 54.5981L83.8347 55.0239L83.5658 55.4498L83.0353 55.9596L82.5047 56.4694L81.9071 56.7879L81.3095 57.1064L80.4748 57.2888L79.6402 57.4712L79.4342 57.5814L79.2282 57.6917L79.0474 57.9677L78.8666 58.2436V58.6755V59.1075L79.0666 59.3786L79.2666 59.6498L80.5083 60.3768L81.7499 61.1038L83.8028 62.1362L85.8557 63.1687L86.6531 63.4342L87.4506 63.6998H87.8232H88.1958L88.3928 63.3137L88.5897 62.9277L88.992 61.5387L89.3942 60.1498L89.8443 58.29L90.2944 56.4301L90.5967 54.9316L90.8991 53.433L91.1066 52.1414L91.3141 50.8498L91.3704 48.8879L91.4267 46.926L91.3077 45.7879L91.1888 44.6498L90.8424 42.5845L90.496 40.5191L90.099 38.9084L89.7019 37.2976L89.2904 36.0237L88.8788 34.7498L88.3465 33.3998L87.8142 32.0498L87.2234 30.7998L86.6326 29.5498L85.9066 28.2498L85.1807 26.9498L84.1487 25.3998L83.1167 23.8498L82.0345 22.4998L80.9523 21.1498L79.3511 19.5114L77.7499 17.873L76.5499 16.8551L75.3499 15.8373L74.5409 15.2263L73.732 14.6152L72.5409 13.8208L71.3499 13.0264L70.3575 12.4551L69.3651 11.8838L68.1075 11.2541L66.8499 10.6245L65.8499 10.1984L64.8499 9.77236L63.7999 9.38176L62.7499 8.99106L61.2115 8.53716L59.673 8.08316L58.4615 7.84736L57.2499 7.61156L55.8999 7.45636L54.5499 7.30116L52.6499 7.20136L50.7499 7.10156L49.4499 7.11566L48.1499 7.12976L46.715 7.20766ZM49.0358 13.5316L48.5499 13.8633L47.8999 14.6701L47.2499 15.4768L46.5156 16.7347L45.7813 17.9925L45.1529 19.3712L44.5244 20.7498L44.0239 22.0998L43.5234 23.4498L43.1621 24.6998L42.8008 25.9498L42.5828 26.9498L42.3648 27.9498L42.3574 28.9498L42.3499 29.9498L42.6418 30.5444L42.9337 31.1389L43.3722 31.5773L43.8106 32.0158L44.3803 32.2828L44.9499 32.5498H49.9499H54.9499L55.5125 32.2734L56.0752 31.997L56.5445 31.4952L57.0139 30.9934L57.2567 30.463L57.4995 29.9326L57.5591 29.3412L57.6186 28.7498L57.4051 27.6998L57.1915 26.6498L56.8838 25.5533L56.5761 24.4568L56.0836 23.0117L55.591 21.5665L55.0864 20.3082L54.5819 19.0498L53.7417 17.3498L52.9014 15.6498L52.3257 14.8527L51.7499 14.0556L50.9999 13.6287L50.2499 13.2018L49.8858 13.2008L49.5217 13.1998L49.0358 13.5316ZM38.1999 15.0513L37.6499 15.1884L36.9999 15.4542L36.3499 15.7199L35.0999 16.3547L33.8499 16.9894L32.4521 17.8501L31.0543 18.7108L29.9021 19.5221L28.7499 20.3333L27.5651 21.281L26.3803 22.2287L25.2151 23.3914L24.0499 24.554L23.1125 25.6429L22.1752 26.7317L21.3036 27.9003L20.432 29.0689L19.9243 29.9094L19.4167 30.7498L19.2083 31.2785L18.9999 31.8072V31.9947V32.1822L19.3749 32.2454L19.7499 32.3086L20.5999 32.4116L21.4499 32.5145L27.0999 32.5679L32.7499 32.6214L33.1656 32.5092L33.5814 32.3971L34.0656 32.0734L34.5499 31.7498L34.8559 31.2919L35.162 30.834L35.5925 29.1419L36.023 27.4498L36.6654 25.2998L37.3078 23.1498L37.7141 21.8998L38.1204 20.6498L38.5611 18.9194L39.0018 17.189L39.1218 16.2388L39.2418 15.2886L39.1351 15.1192L39.0285 14.9498L38.8892 14.932L38.7499 14.9142L38.1999 15.0513ZM61.3466 15.4996L60.9434 15.6992L60.7716 15.9899L60.5999 16.2807V16.6533V17.026L61.7437 20.6379L62.8876 24.2498L63.3495 25.7998L63.8114 27.3498L64.263 29.0998L64.7145 30.8498L64.9136 31.1719L65.1126 31.494L65.5642 31.8915L66.0158 32.289L66.516 32.4551L67.0162 32.6213L72.583 32.5693L78.1499 32.5173L78.9999 32.4087L79.8499 32.3002L80.3326 32.1882L80.8152 32.0762L80.8702 31.9331L80.9251 31.7899L80.719 31.1864L80.5129 30.5828L79.9814 29.732L79.4499 28.8813L78.4016 27.5656L77.3533 26.2498L75.6516 24.5128L73.9499 22.7758L72.8999 21.8531L71.8499 20.9305L70.8499 20.1484L69.8499 19.3663L68.7499 18.6453L67.6499 17.9242L66.5499 17.3289L65.4499 16.7337L64.3999 16.2527L63.3499 15.7717L62.6768 15.5357L62.0037 15.2998L61.8768 15.2999L61.7499 15.3L61.3466 15.4996ZM20.5215 38.9024L19.0931 38.9851L18.01 39.1439L16.9269 39.3028L16.4543 39.4638L15.9818 39.6248L15.8037 39.9176L15.6256 40.2104L15.5125 40.9301L15.3993 41.6498L15.3049 42.7998L15.2106 43.9498L15.1457 46.3498L15.0808 48.7498L15.1916 51.1998L15.3024 53.6498L15.4109 54.5498L15.5194 55.4498L15.6846 55.9498L15.8499 56.4498L16.1999 56.6181L16.5499 56.7864L17.2999 56.9375L18.0499 57.0887L19.3499 57.2086L20.6499 57.3286L23.6499 57.3374L26.6499 57.3462L27.4092 57.1311L28.1686 56.916L28.8298 56.6162L29.4911 56.3163L30.0685 55.9331L30.646 55.5498L31.2824 54.9545L31.9187 54.3593L32.3475 53.7545L32.7763 53.1498L33.0741 52.5498L33.3719 51.9498L33.5808 51.2998L33.7897 50.6498L33.8948 50.0564L33.9999 49.4631V48.0925V46.7219L33.8435 45.8973L33.687 45.0726L33.3884 44.321L33.0898 43.5693L32.6339 42.8644L32.1779 42.1596L31.5639 41.5183L30.9499 40.877L30.341 40.4411L29.7321 40.0053L28.991 39.6541L28.2499 39.303L27.4499 39.0866L26.6499 38.8703L24.2999 38.845L21.9499 38.8197L20.5215 38.9024ZM50.94 49.6508L50.7756 49.9018L51.1942 51.5758L51.6129 53.2498L52.5645 56.7498L53.5162 60.2498L55.0641 65.7998L56.6121 71.3498L58.151 76.7498L59.6899 82.1498L60.5991 85.2498L61.5084 88.3498L61.9166 89.6229L62.3249 90.8961L62.4611 91.0091L62.5973 91.1221L62.8736 91.0546L63.1499 90.9871L63.725 90.3863L64.3001 89.7854L65.5648 87.8676L66.8296 85.9498L67.4595 84.9998L68.0895 84.0498L68.6422 83.3805L69.195 82.7111L69.658 82.4398L70.121 82.1684L70.5463 82.1749L70.9716 82.1813L71.4108 82.4028L71.8499 82.6244L72.7529 83.5371L73.6558 84.4498L75.4513 86.6498L77.2467 88.8498L78.1267 89.8696L79.0067 90.8894L79.773 91.5955L80.5393 92.3015L81.0392 92.5507L81.5392 92.7998H82.0305H82.5219L83.1044 92.4893L83.6869 92.1789L84.8764 90.9643L86.0659 89.7498L86.3496 89.3197L86.6332 88.8896V88.465V88.0403L86.3142 87.4451L85.9952 86.8498L85.4187 86.048L84.8423 85.2461L82.4863 82.248L80.1303 79.2498L79.477 78.3498L78.8236 77.4498L78.5699 76.9443L78.3163 76.4388L78.2488 76.079L78.1813 75.7192L78.348 75.368L78.5146 75.0168L78.8823 74.7628L79.2499 74.5087L79.8999 74.2155L80.5499 73.9222L83.2499 72.8725L85.9499 71.8228L87.0244 71.3508L88.0989 70.8788L88.4909 70.5948L88.8829 70.3108L88.9497 70.1004L89.0165 69.89L88.8654 69.6594L88.7143 69.4288L88.1614 69.0618L87.6085 68.6948L85.5292 67.5365L83.4499 66.3782L79.2499 64.103L75.0499 61.8279L70.4499 59.375L65.8499 56.922L62.2999 55.0465L58.7499 53.1709L55.0403 51.2853L51.3306 49.3998H51.2176H51.1045L50.94 49.6508ZM20.7541 64.4733L20.5582 64.5225L20.324 64.676L20.0897 64.8295L19.9448 65.1097L19.7999 65.3899L19.8011 65.7198L19.8023 66.0498L20.1261 66.6261L20.4499 67.2024L21.0913 68.1072L21.7327 69.0119L22.6521 70.0809L23.5715 71.1498L25.1166 72.6498L26.6616 74.1498L27.9557 75.2105L29.2499 76.2712L30.376 77.0798L31.5022 77.8884L32.6056 78.5532L33.709 79.218L35.0294 79.843L36.3499 80.4681L37.5575 80.9839L38.765 81.4998H39.1252H39.4854L39.6983 81.2291L39.9112 80.9585L39.8496 80.7041L39.7879 80.4498L39.4504 79.7924L39.1128 79.1351L38.701 77.9424L38.2892 76.7498L37.7503 74.8998L37.2113 73.0498L36.952 72.0176L36.6928 70.9854L36.4421 70.3176L36.1914 69.6498L35.8031 68.9998L35.4147 68.3498L34.9323 67.7869L34.4499 67.224L33.8999 66.7545L33.3499 66.2851L32.717 65.9294L32.0841 65.5737L31.417 65.2948L30.7499 65.0158L29.9974 64.8616L29.2448 64.7073L26.0474 64.6052L22.8499 64.503L21.8999 64.4636L20.9499 64.4242L20.7541 64.4733Z" fill="#FBFBFB"/>
</g>
<defs>
<clipPath id="clip0_2373_18927">
<rect width="100" height="100" fill="white"/>
</clipPath>
</defs>
</svg>
