<svg width="55" height="23" viewBox="0 0 55 23" fill="none" xmlns="http://www.w3.org/2000/svg">
<path d="M1.5 9.5459C0.671573 9.5459 0 10.2175 0 11.0459C0 11.8743 0.671573 12.5459 1.5 12.5459V11.0459V9.5459ZM54.5607 12.1066C55.1464 11.5208 55.1464 10.571 54.5607 9.98524L45.0147 0.439297C44.4289 -0.14649 43.4792 -0.14649 42.8934 0.439297C42.3076 1.02508 42.3076 1.97483 42.8934 2.56062L51.3787 11.0459L42.8934 19.5312C42.3076 20.117 42.3076 21.0667 42.8934 21.6525C43.4792 22.2383 44.4289 22.2383 45.0147 21.6525L54.5607 12.1066ZM1.5 11.0459V12.5459H53.5V11.0459V9.5459H1.5V11.0459Z" fill="#60A5FA"/>
</svg>
